<mxfile host="app.diagrams.net" modified="2021-08-12T06:59:18.782Z" agent="5.0 (Windows NT 10.0; Win64; x64) AppleWebKit/537.36 (KHTML, like Gecko) Chrome/90.0.4430.93 Safari/537.36" etag="4Me2tZE2UPXFb_mFhizT" version="14.9.5" type="github">
  <diagram id="FOCfvsT4qXjm9Dn6GbhI" name="Page-1">
    <mxGraphModel dx="759" dy="426" grid="1" gridSize="10" guides="1" tooltips="1" connect="1" arrows="1" fold="1" page="1" pageScale="1" pageWidth="827" pageHeight="1169" math="0" shadow="0">
      <root>
        <mxCell id="0" />
        <mxCell id="1" parent="0" />
        <mxCell id="yJE9GD3ZsEBa4JYX66G7-20" value="" style="rounded=1;whiteSpace=wrap;html=1;strokeColor=#3399FF;" vertex="1" parent="1">
          <mxGeometry x="489.64" y="243" width="160" height="290" as="geometry" />
        </mxCell>
        <mxCell id="yJE9GD3ZsEBa4JYX66G7-1" value="" style="rounded=1;whiteSpace=wrap;html=1;strokeColor=#3399FF;" vertex="1" parent="1">
          <mxGeometry x="240.32" y="243" width="160" height="290" as="geometry" />
        </mxCell>
        <mxCell id="yJE9GD3ZsEBa4JYX66G7-3" value="" style="shape=image;verticalLabelPosition=bottom;labelBackgroundColor=#ffffff;verticalAlign=top;aspect=fixed;imageAspect=0;image=data:image/png,iVBORw0KGgoAAAANSUhEUgAAALYAAAC+CAYAAACYo/VpAAAgAElEQVR4Ae2dh18UV/f/8w/9vqlP7MESUzTG9OR5EpPYe6cIAgp2RQV7F3tXxIL03nsVpUovgh3sn9/rc2fv7OyyC8syNN19vY6zrLtT7n3PmXPPOffcD+B4OVrgHWyBD97Ba3JckqMF4ADbAcE72QIOsN/JbnVclANsBwPvZAs4wH4nu9VxUQ6we8jAWwBv8FaV12/foDui/S335Xjp0wIOsG1oRy28EloJpA0/79ZX5H7Nj+OAvlvN6PCKmDeXFmIJmfl3zP9+9fYNHr9pR9OrR6h52YqyF40oel6LnLZ7yGqrRNqzMiF8z8/4f/wOv8vf8LfcR1cveT5y64Ddeos5NLbGlKCWtPZqf/MStS8fCFATnt3FpYfp2Nh4DS51ZzGn5ij+qtqHnyoD8G25H8aVbcSYsvVwKl2HL0rXYFTpWiF8z8/4f/wOv8vf8LfcB/fFfXLfPAZvBB6Tx7b24jlL0K195338/L0F+y3e4jUUKMw7/sXb16h+2YKkZyU48yAZW5pvYlHtSfxdfQD/vbcHS2pPYW5NICZX+luWiu2YbKtY2Af3zWPwWDwmj81z4LkkPytF9ctW8BzNXwSc18Rre99f7xXY7HCl2007np/Xv3oooDn5IAkbGq9hUe0JzKg+3EGW1J7EtuZbWNcQjJlVRwxyGDOrjDLj3mHYItrfGN8fEfve1nQLPJalc+C58Rx5rgSd524Os7VrfV+Afy/AtvSofv72FQqf1+L0g2R41F/Af6v2YGLF1g4yqWIbvq/YBm6/K9+Kvyr3Yl3DNaysvYAJZX69Itw3j8Fj8ZiTyreq5zCx3K/DOfLceQ28Fl4Tr037snT92v9/F9+/s2BTJ9P+1OpmDtAK2mtwsCUGs6qPYGzZBtX+lXYwbeDRtI1L1mLUXV+MurvGRCaXbYdX3SUsrT5p8rn593ryN/fNY/BYHffjK85tdMk6Ya+PKjHa8LwGXhOvjdfIa9UOSi21ybsINa/pnQObj2DzxzIHYOcfpmJB7fEOMBNkMcizArI5WP0PtumNxpuPN6F6DYaBqoSc18xrZxtoX5baSfv/g/39OwO2+eOW2imzrQLrG4PxfcV2E81sqpXNQen874EHtun5EnI+cXiN8inELduAbcE20T7FzNttsAMtz3/Qg82O0brpXrx9hbz2KqxuuGzSsXS1GU0MUxjMtXJnfw90sLXnLiH/wsxcYduwjdhW8iXdhvLvwb4dtGCba5qnb57jyqMMrGsMhk9jEH6p3CHApuYS2suCvayFwNb3gwls4zX5wqlE8aFTe7Nt2EZsq8sPM8C2ky/zdpWfD7btoANbDoBkQzN4QaCnVO0TIM+rCcTqxiD8XrELQlOZDf6MnW2f1h6cYGuv1Re/VezE6oYgsK0IOtuObagNBJkPvGV7D5btoAKb2kTah9yGPc4Xfl5pS9LcWECwG4Lwc3mABY+CtoPtez/4wV4j2sa7/opoK21klD7z8CcFJm3MNh+Mr0EBtrmWZr7FsrrTqg0tQ9XU0HOrjmJ1/RUH2J08qXjTs43YVvSq0FTT2uFsW7axfA1G7T3gwdYODJtfPca25hATl93osvUQvlxDRzrA7vpJZAq28fscXMunH/3hbGu2uXxp+0J+NlC3AxZscy1961Eefq3cqTY8gbZkQzvANoJqbTxhDWzl+77CeyQBZ5uz7eVrsGjvAQm21q5jHoR3wyUVaOWxyaig5Q50gG25XbTt1TnYyu9l0EcCzj5gX8iXto/kZwNpO+DA1j7uIh4X4IcKfxVqc7ND21nyvQNsfcCW7ak1T9gX7BP50vaV/GygbAcM2DQ9pBagX9Wv6aYJ0JbMDtn42q0DbH3BVtrW1DzZ0nRT9X2zzwai32RAgC2B5t2e31aNf6sOmECtHRxqIbb03gF2b4Ct7FOrvadWHUTesypVQWv7UP2wH9/0O9jax9nVh5n4qnyzgFoMDjn7xIotbe1zB9hdt5ktNra19pVhetreX5VtQlBruoqvti/VD/vpTb+CLRuCd/uu++F2a2ltJzjA7l2wZVur2rtkDXY0hqr5OrJP+4ln9bD9BrZsgEev2+Bed16FWuR1MGmnm5paft8Bdtdt1xONLduZW+afCK9JyRq4VZ3Gg5dPBViyb1XK+uFNv4At7bHqFy1qSJxAC6jtBFo2uAPsvgObba66BUvWYFrFAVS2NQmMZR/3A9PikH0Kttbzcae9Dr/d29Uje1rCrN06wO5bsJW294VwxTJzsNQfRU+UQSXh7i+PSZ+BrYX67vN6UXaAjzGWIuiO10MLsaX3DrD7A2zlmGNK1wtF9UPJtn6Hu0/A1kJd1F6LlfUXRb6H3lATdAfY/Qc2259wM89kRdVZ5D6qVM2SvtbcvQ62hPrt27dIfVaKDU3BIkTOKNa3ZVvwTam+sqzmNDY2XMfflft03zfP9b8Ve0R5BI/a872yfx6D+2Z5Bx5L7/bh/tg2bCO2VW/snzVVGIJfU30F8a1FYN/3tVnS62CLC3r7FtTUhPrUw2QEtibCq/4i3GvP6y77mqNw9kEyNjVc133fPN919cE43ZqEw/djemX/PAb3zWPwWL3RRmwbthHbqjf271l3EYEtCaKvfe9dQvaDchXuvhpM9irYEuqS5w1wrz8Pz4ZLCHyQgAMt0XCuPYOlNad0lx1NYTjRmgDf+iDd983zXVV3Gcda4rG3OapX9s9jcN88Bo/VG23EtmEbsa16Y//s2wP3oxDYGi/6fHnpCRQ8vNencPca2PRl8hFE78dPlTswpmwDfqoIgHf9JbjVnsX40o0YXbJed1lQfQxr6q+KqWG9sf+fDEn6zjWndT93eb7cNycC8FjyMz23nDbHNmJb6blfuS/2LfuYtVF+rPAXx/i+cDPyH1YKJvrCz90rYMsTp5/6j3u7xUiZA8WJZX7wqL0A55ozGFOy3u4gjCVviPzMMXjs38GjGECWrBd9zL6eUOonBpQj7/ji54KtqHjSIKwRyUhvmSa6g03zg6/Hr9swo+qwCjVderxIB9hdg9d5Jaiufy9vcmtbvSKP1vZPpUXlJcEWsJeuB+H+u3AXWp8rs3IkK70Bt65gyxOlCbKy7oIafJF+agfYtkH5LoJNuBnEGVG0Gi7Fx/D6tVItVjKjN9y6gS39lIR6T3OEgFrMdtFk6DnAfr/BlhOHR+SvwtbSIGFvE2jJjp5w6wa2HCzeeJQjoGZU0Tz3wwH2+w62klvCJ/jwHC9cqEnotcGkLmBLqIvaavBN+RZVW5vbYA6wHWCTCSo82tvjsnyQ3VLaK3D3GGxpIz191Y7pVYc62NVauB1gO8CWPDCfe+RtH/yZvR0P258IuCVLepgkPQKbtpGQt2/h13ijU6h5QQ6wHWBLsLkl3MPzvOFz+4wAW/LU72CzqDgHi5GPCqza1doLcYDtAFvLA3O5aW8PzfBAcHWyYElbqL4ngNutsfnYINSNLx7i54oAo7buZKKAA2wH2FqwpdYeWeyDiWlrUP24UTClR/DGLrCle+bNmzfwrb9ihLqLKV0OsB1gm4Mt4C5bL0wSt7yjqn9bMmav1rYLbOkFidCYILbU/XCA7QDbEthyrZ+h6R64WpWki9buNtjSBGl5+QT/q9xj1NadmCDyYhxgO8CWLJhvpZfkx9QNqH/S0mO4uw02tTVNkB1NoQJqEYTpwgSRF+EA2wG2ZMHSliwNy/bEuqJzgrGe2NrdAluaIIVt1RhfsckItg3amhfiANsBtiWg5Wf0kjBw45TqibTG20Jrv3rTcQViW+xum8GW/mpq6xW157plgsgTd4DtAFuyYG0rfdsLMvfi1atXAm57BpI2g03bmlBHPyoUUDMXxJYBo/YCHGA7wNbyYPm9smjskOQVCK5MEszZE5G0CWw5YGx/9QJzqo7Ypa15EQ6wHWBbhtm0Xai1mQE4JdUPT9qfCa3dXbhtApt2DrX19QdZdmtrB9imnddZB7+r+didXbPp//mKiOSQlBU4VRIp2Hv52rgmpS42ttTWz149x7R7BwXY5umopidlvQP7SmOvbwjGrHtH8HXpZt2nnw3mVcOc7q7Fd2VbMfPeYaytv2pYXMl6f9nar+bfszSDxvw7Xf1Nxqi1f0vaiIdtSpJUd7wkXWpsqa2vtfZMW/NC+gLsJdUnkfa0TNzlSU9K8HP5Dl3hHsxgL6g+jqrn9/H89UtEPS7AwurjuraNhFUPsEXQpmQNaGufuBMh+rM7HpJOwRYLyb99ixevXmBDwzXMqjmKOTWBmFl1xC5ZUnMKe5ojEdAUhrnV9u+ns+Mfuh+NJ6/a1YaIeJRv17laOwbn8u2/H4Xtjbd03a/2eNw3j8FjaT/vyft51YEoaW8Q7UKz8uGrZ9jfHKXb/rXnxr5lH7Ov2efa/+vOe7I2rWQ/XNMP42nbU8XWfvvGFksEnYL9xhCMKXhaLZYo5jLFXByUpQHskU0NN3CuNQWnWhLF9H979tHVby60pqpgswOpnVgYpqvf2fr/fg03ceFBKk60JOi2T/Njc988Bo9l/n/2/O1TfwXBDzNVqNkuj1614Xxrii77Nz8nlnZgH7Ov2efm/2/r31xkld9dnn0YCfdylfPvKdjSb01f4pq6IPxYGYBfKnbih3J/u2WKobQWC7b8UrHD7v10dg6cGS1NEXYghX//VblXl+NNvXcAWxpvimI2nZ1HT/6PhXJ4DB6rJ/uRv2X9kNoXrSZgs03YVvI7em7Zt+xjllFjn/dk32RuUuFmLE89gBcvXtjs17aqsaVtnfukUl0wVOTP2hhllPaWdtsXNjbrimxvCgVzWSTY7a9fYE19kC725GCzsZ3ursOF1hS8Nni22CZsG7YR20rbP3q918fGVga1Mho5LM4VCTV5ok9t8ZBYBZsjUE6R31qvrN5lrydE21h9BTa1xcXWVLx4/UqFu7itDpPKtvW4Iwcb2LOrjuD+y8dqO7BN2DZso8EANvkROSQZK+GZESiYtMU7YhFs/pB3dkN7q7ImuYUZ51pgbX3fV2DTLvu7cj9ynt1TO5RPoOP340GXl63na+l7gwnssSUbkG7wEMmnV86zStE2bKPBBDbrkXwT542KllrRp115SKyCTW0d1JKuBmRkzqylzrb1s74Em9WOaEM+e/1chbv15RNRmtfW87X0vcEC9hd318Kr7iJevjE+tZ6+fi5KFPdHJShLbWn7Z4aATZIbjhaF2KS1O4BNFx/v7pcvX2J59Sm7w+eWTrqvwf6qdBPo7pPaitvgB5mgJrN0frZ8NljAZkHLgrZqk2sPf5SP8aWbxFN4MGls9gurSA3P9cLMpAC0tbWJ6+psIZAOYEvb+vaTanxdpqy52NNBowSmr8HmcVk8Xfq1CTbfsya0PKfubgcL2IH340wGjLzu/1bsFtc9+DS2UmiHKa2jYlcgrbZIaO3OzJEOYNN3TRffiab4HoXPLQHTH2DzPM62JkN6eQg37UxqLkvn2NVngwFsrljASdbyScVrZxvIaxuMYPPcOYgcmuqOgJzLglGyau1lAvYbLqnw5g3aXzzHwqpj7wzYv5bvRFl7o9rRDNpsawwB7VDZ2bZuBzrY40o2IORhjom2Lm1vwC+a1ILBDPbwfG/8Hb8Fj58a3LlvLWdrm4AtzZDixzW6myEEp7809hd312BD/TUT91/Nixb8VrHLLrC96y4Jc+bXip0iMWxx9Qlsbrghom03HmYj6nEhkp+UIO/ZPZS014vgSM3zFtxpq0PWs0okPrkjbH/a+0fuxwgfO4Mo9OTQNnatOQsegzeRrTec/B7D8LxxpbZ+8fol1tcHg20gvzNYwZY+7VExK5BWVdipOWIC9qu3r4WKv9ycKrT1F6JSqpL4LRulJ9v+ApvnPKHMD+lPy9UOZ8efbkmCE4u2aDrd0nu6CMeVbMRvFTvh33hLuNCK22oFtE0vH5ncMBKo7m7pval70QrWP+SgL/5JMdbWB4lsPA52bXm6TCzbirSnpSbXmPq0VCgU7XUNVrDpmSOTTIw6kBMsWCWzll4q2NIMYdjSt/ay7maIgKufC79TKzIKKaFj4KKzDDcGdKg9z7QkiQQiRrzkb/tq2/b6OTKelmFvcyTmVgWKG0wLqfZ9QGOoyU3Ga51XFdjhxh28YCt2Nr0jS5L2qN4Rsmv+UsGWZkjDs1aRo2CpDLC2Ee15358am+dLzXvrYa6J/Zn85K7JsiGEmTcAE4TuPW/G41eKa6mvQLZ2HA4A6YcvbKvBzqZw/HvvgMkAmCZM/YsH6o3HEPrNhzkWA1KDHWxWjvolbh1KG6usmiMq2Gw4ekNSH9zFpIptiiliw2O6O4D3N9g8VybZawGgDcrVF74t3SKW0Mt+VmkS1LEGWn9/3vzyMaIeF2FpzUkB+MmWBJMblmbN9HuHOmhrtsFgBlu4nkvW4MtEL9wsThLMWsodEWBTkRNsmiHnm5MF2HrkhphDPxDA5jntbgpXNRsBZVKQ1tfd39B29/hNLx7h6StjhJW/39kUZhHqwQ42z59sfp21BrsyLwlmya65MSLAlmZIe3s7ttRdf+fBpsbiTJLuAjRYvn/v+X38WB7wToIt6o6UrsO3hRvglngAT548sWiOqGDTDKl50gSX6jPvNNic83eoOVrYq4MF1O6eJ59AB5ujhEfF/Kn5rmjs70r9MCN+O+7UlyveEbPCOgJsqnLmhmS0lmBm9RHFxr6rn5tPNm5/miKMNDInm/5rXm93YRls3+c18lpZDffLko0m2nsw29gKS76C0f8mb0bonRTBrrmd/QFrXLMRaF9fakrBjOrD+L6i+4EBCW9n2/4Cm5HHqw8yO9ihgw1We86XS6gEPch4JyKPki2aI2T0f5nbsC8ryGhna9x+H9AH+Or1a9C+3lEXIsCe/I6AzdkjnLVe+bz5ndfQXUFf3t6IRdUnhPtvsGtsgk1GpxTshFfiYcEuGdb6sxWwX73Ck2dPsaL67DsDNmug0JbmbOyuOv19+f8Hr54K23tq5QExSXawTDSQmlpuJdj/3t2LmdHb0PrwgbCzTcCW9nX94/uYce/QOwB2oCiNwGgdfdTvC7S2XifzSFKflGJrY4iIZEpY9NzqOefR2nlRY0+rOIhfo9ehrL6qg539gbSv81rL8W/VASyqPYm/KveJETU9CHoK84HXNQSrM7z13Lfc15aGG6gxm5Fta6e/T9+ju3NTw3Vd+1f2AWelc6Y9+5p9Lj/Xc0tGF9WcwC9xaxFXkinsbO0A8oMXr17i+fPnSGy5jaW1p7C1+RbWN1yDZ91F3YVZZqdbk3C8JV5cuJ7H8Kq7hAPNUWh8acxDfp9AtedaG148EDVX2HZ69gWhZh+zr9nneu5b7ouMktUZaTsQfDteMPz8pVKegXkjAmwOHIMb0zC3JhC+DVdFSubC6hPQW1hX+9D9GOxtjsLSmlO67n9HU9g77Zu2B1xbfsNEMOam69nX7Fv2Mfuafa7nvuW+3GvOwbfxKv7J8sehzKtiANkBbM4h21FzUxTFmVl1WDw6rNk2Pfm8t9x9q+ougemjtnSk4ztKBQJtO3C2jSjm30X6rq193xc2NgM0jLlMzFoPr4TDItOP1gfd10Jjv3z1Ck+fPoX3vfMGsI8MGrCZrbe85hSaHVD3+KZmYhhTXG3J++4K8L4CexaDiQWbsCAmQDBMlo1gv3wp4u2LK48rYN87NGjAZgmw6nc450OrVfvifXl7E/6s2GsSpewKYkv/3ydgsxxy1WF8X7QF/0RtwqNHj4Rn5PUbZR7kB4w4Pnz8CDMqDgqwZ1QODrD/V7EHrO7UFx3+Ph0j71mVSZTSErhdfdanYN/xw89hPmhsbjLxjHxAj0jDw/v4s3zPoAGbuQ8pT0rfi5yPvr6p6P6NflzYo9orfQb2vUOYXLoN34evQnldlfCMSJefAJtlo34u8x8UYHPu4amWBIemNlSS7S3w6ToloF1pZ0v/35dg/1C2HV9HrETBvTsCbDmA/ICuvjv3qzCpdOuAB5szrema0s5b7K2Ofd/3y4kX9lao7VOwy/0xNtIdmeWFJi6/D+jqK2gqF1OjWAN7INvYzP9gKub7Dl1fXX9FexM4lrGklTv7rK/AJqs/VvjDKdINySU5wuUnfdkC7LzmMjFvjl8aqGAznzrTrHxCX3Xw+3wcloHobq3DvgZ7RJQrEkqyTMF+9uwZshtLMK50g6B/IILtVLJOzFPUFi/vCWwvX71E1aNGFN6vEFLzuAkcdPRkn/3527aXz1H5uAEFrZUoflAFVhpgtVw9zonVWplT0p3yy30KdmUAhke7IKY4A2SZVczoy/6Af2Q23sGY0vUDFmxWSDJfasLeTnvQ/hh7coIwOXglhp+bj2Hn5uGn6944XhQGAmLvfvvrd3VP72N9zhlMjlyNETeWwinEBX/FbkZodTpe6XSzsjzc792omtXXYA+NckZUcaoAu80E7IaBC/bokvWIe3xbF+DY0ctiduP/nZiK/zs5zSinpuGj0zPglnBAl+P0FeS8EX+LXodPgucZZD4+CVZk2I0l2F98Q7frud6SiS/uGMukDRgbuzIAQ6OWm4DN9v+A4fTM+jv4snTjgNPY9IIwh0Gv0ggZDcUYcmaOEWjCfcooH5+ZieymEt1g6G3Ar91Ltgj1J9fmgzI21A31z/QZbD948QRzig9iVHHXc2H7WmPTxo66nSbC6jRFVLCzG+5i/AAEm4XbWXtOD0Bon/tnXsCHZppaBfv0dPzf6enYknFOl+Ppcc6d7YPa2iXtYAdNLaHm9j83FuFypX4+/9C6TDile2MU61R3kjDVp2BX+GNEpAti76QLsNueK2t8Co2d31CGb8u2DDiNzTxhRsI662Bb/+/l65fwSQ40amuNpibQUpzj96J9ENjaD54/wdykHarpIUwQg6YWcF9fgE+vL8Su28G6tB/bmTOS5mTsxtBkt07h7muwnSJdkVCc1RHs2w3lmFy2bUAFaL4t8+uwXqOtEFv6HjX23pyr+OjUdBPzQwItt2vTTorJzZb2MZA+e/7qBVZmBBrBNoP6k+sLhMY+Wx6tG9i8/sj6bIyMdBEF2K2ZJX0F9sx7h8QakuMi3JB2J6ejKVLWWIVfSgMGFNgray/oXi6huKVKeEHMzQ8JNbcp9YW6gtCbN0N0Xa4CtgWoCfaYMDdUP23S9Xpanz/B7PRd+Cx8iQK3BbOkT8FmSD1sJXJLCzuCXd1Yh7/Kdg8YsFk2IaMXgjHU2gfzr2Po+Xmq6SGh/vTsbHgmHdHNRdabQMt90/e+Kvskht5YLAaLhFmKU5gLzuisreVxb9VlCLA/i1yKoSkrOpglfQn25JJtmBTqjTsVpR3BbmpqwoyyAwMGbFZEbdPUsZYNqsf22ct2XC2Nxw/XPQXgQ87Pw1dXXXGkIAQtbYNvFg5t7WMl4ZgY6Y0RIcuF/BG3EeF1Wb3ml3/44ikmxfvis4glQoale5h4S/oMbOZjF/vh51urUVNTI8B+8VKpTCACNM3NzVhUFjggwB5dwiWSU8GEcT1A7mwf99seoepxIwh7Z98bDP9H7d3Y9gA1T5t7/anD4jQ7717HfyKW4j+RinDRI+kt6ROwOTWs6rBYZ33KrfWgcmawkbNo2F8fsFAOwV5Vfk6ATYOc0+Q7c+fY+3+2zHn8uXyHo3JTH9zUPb1Zs1vL8GWspwr2f6KWYWiaAndfgv1d3kbMC90mGCbLLK4qQur84/79+wiouK6A3c+TeTlo7Att3dOOfd9/T9ff9PQdCthRS/EfgwzL8MDou+vARZ64MjKVmb2KsLPfycm8EzLWYmXkPsFwB7BbWlpw8V5Cv5dfYG0587W/33eABvL136hOxT+JfkZJ2op/krZhTv4+7GmK7JPyC1PStmFv4kWQYS6Rx+QvJQmq/RlaW1sRXZUtCub4NYX0W8Eclt3SLrw5kDvVcW5vUP6oHs5pB7EgeTcWpOxRZUnafuwtC8Gp+4m9XjBnWtJ2XEgLFQw/bXuqBbsNDx48QHpVIVissD9LnK2rvwqukuWApvcHznq0ccvzx1icdQBjY1ZibKxRvorzxpK0ffC6cwZ/lPduibOfInwRlhMvGH7a9swINmPrDx8+RGltJWZVKEUpv++nwePZliQH1INg4ChvCsYFtty5DA4ctTIs2gWzUnZgftoefJnho3pLOrOZu/t/ZHRaxQH8cssH+SW3BcPP2pUV3oQp8vzFC1GToa6uDu7lp5XC7+XbesXg78orwsU7ZaM5toNDa4c1ZJlATcCZ+C/ATt2DMXErMSxzpa5wyzLC/xTvwfSbG3Hv3j3BcPtz5Wmv1O4z1BVpaGiAf8W1fisjzOXo9EqMd9wUfXdT3H/+CJ9HLVfh/jx6OYbHuAqwF6QpYH8esxzDdYRbgv1Xjj/cw/eA7LI2DmvksO+VEmcvX+LRk8dobGzEuYpYAfYkobE7T03s7qOD3+9MYy+rOe3Q1oPIDNEqj59SNgiwCbUKduoOqGDHOuPzOGfQFSiDOPbwY/wNl+rYhj+SN2NHzBnBLhnmOkoq2HRoyyBNXGU2ZlcfxaTyrRALRXaSc2s8iG2zKroC23ztRW3DOd73nQa2p61d8o8KoLVgz07daQq2gNsFw7M8eww32eQiu79FrUdQergIztDVJ4MzQmPzD44m6Qe8XVUK13unDauG2Q6srZBb09icrBvyMMehsQepxj5cEW4Em2ZHrCsE2Ol7MSbeE58TagPYn8e59MgsoRlCsCfe3YKptzYivShbsKsNzgiw6dBua28X7hImkmyuvCrAdirpO7AnlPk5AjODFGpq+NCGTIyMdQNtaWFPE+y0nVigBTvOBYSaMiTB1W64CTZX5v0mdx2WhvijsrJSsPusrU119QmweWKs38cFaugZOVUeJcD+QoCtr51tTWNzFau77Y4Ck/aYAQPhN2mtdzE+0dsM7F1GsLVQx7tgCIVwZ9tjlvjii9I1GJ/sDb/I44JZskuG2fE4EqwAACAASURBVBZ09algczT54NFDMbqMKsvA5PLtGFWyRnc72xrYf1buBZeNGAid5DiH7tvz5U8b8EPKegXsWGcMj3PD7LRdWJixD2MTvIyaWkJtAJtwD8vqnitQjP1K1mBshDvOJ4UIZgm21iOigs3RJI1vpv4VVdzF9NJ9GFW6VndftjWw/63cj+b2R3j6or3HwkmunLPIVFTt/vi3XsL98zh67c98P9prMP8/Pf4W+3/1Am2vdLiGV+2oa2vBH+lbVFvaEthCS0uwE1yFxibYQxK7p7kJ9ojC1fjphhfS87MEs+YeEQE2VTcHkLRR7re0oKqqCj53z/Up2N/e2SxmXC+L3Q0py2P3QJW4PViuyl4sj7Mi8fuwOfk09qRdwqrEo1gev0+Ic8I+qJK4D86q7IdzkhVJPgBnM3FJPoBVaYHYm3UVAZkX4ZJyUJHUg3CRknZQXAtnkJvKIbikGST9EFy0knEYLhrZmXcFB/KvY3X2SbhmHlYk6zBcpWQfgasFccs+Arfso0bJOQo3KbmBcDPI2vyzOFocioCiIKzIC7Qs+cewoispOIYVBcfhVhCIcYleJmDPSd+tamyrUEvAE90wPMerS2+JHDgOTffA/Ot+wr4ms2RX6xFRweYAklVX7z9oQW1tLU7fiRSmCM2RUTquqW5NY9OrMiLPGx9dmm2xmE1ncxTl1K4Pz8wA5YfLHph+dT1GX1iMD8/OwIfnZhrl/Ex8aJCPLsyCKhdn4yNLcmkOPtLIx5fnwOnqUsy4tRn/C1mDj6/MVSRoLj6WcnUePjaIsZANC9oYi9loSyTIqVxie2MBPrmxAFMiN2JO9HaMDXXFpzcX4tMQjdxahE+tyGehi6FK2GJ8JiV8iTKVi9uIJfg6yguLk/bgz/hNmnxqY+qpNjyufS/deWJrGCiKAaP0ekiXXvwKqGAneik2tcb8EJpaQi20thuGJLnZ4Ar0FQqX57Q94oRgtbn1vmBXZvURar7EWuq0K+XKBvX19UgtzcXEO1t019qdgU246eP86LKmoI2VEgkSZrmVUHP7I8EONoDdE6gJuhnUFsGWQHOrA9QE++8oDdg6Q62CnbzXCLYmn1oLsva9VagJuDWwM/dhrARbC7L2faIbhkhJ7lpzjyz2gdP15QjLjAdZ5dhQ2tdy4CjA5j8Em3b2k6dPhc1SUVGBRbcPC7D1dPt1BbaAO9tLgdsOqKmhVbAvLrFfU1uBWoAdvMygsdcatbSOUFNDG8F2M2prK1qa2lvV0tTYUktza6ap5RzFb6K9sFiC3ROotUAbtDXdeSOosTN2Y6EEWwuy9r0Emtskg1iBW7r5hmWsxJ9XfVFaWipYJbPaiKNQ19TYfCPtbNbKbm65L+zsQ0U3odg0+pkjtoAtzJJcbyPcmmI2UkPLrVZTC7NDBXsDRkuwdTA/CLSQK3PhRLBDN+PPEA3YOmlqYXZIsGP8MTbMALaOUHOOohHszerMF6121r63qqm1UGvceQLsBAn2foxN8jYOFLuCOskNQ5NXiJnviitQG0tR3HycGb8h7IhglKySWXP7WtXYBJs2ivRn085OupON725v0tUcsRVsaZZ8fGVOhzIJnUEtNPaVlZh+zQB2d6HuRFNLe7oD2DpDrWjsTZgjwdYZahOwEyTYpmmnEmyrUFswP9TgS7wLRhjAXpRlBWxLmlpCTbAl3Lksp2aEe+RtH6FYwtLjhH3d8qBVMGtuX6tg8420sx89VhKiysvLsazgiK4uv+6ALTU3gZIwy60lTS0Hij9aAFsdJHLAaGmQKD+zYFNLTW0K9hZFY/cC1Bwo/h0lwV7R44GiND/kbHIBdow3lqTsxZ8C7G5CrdXUGvNDRBQN7jwBduYeWATbRqhZr4QyPNcLI4uVMDpnwv97da0wQ5i09/CRaUYfOZYvYYrwD2mOcAo7lxZjjuupglDQWKdPWzjGe5gU1V2whebO8RK2rC1Q0wOign1pqfCA6Ak1PR/U2DNDt+DPW+vUwaK93g8OFKX5IbaGgSLBnhsbgLHhlsHurk2thZqTbr9Rwd6ipptKLc2tVU1tA9R07Y1IdMccAfYBjNOaIt2EmiBz5js9ZmSB44mdEacEmw1NjaLcgiUzhDybgC3dfq0PWoWqzy0uwO8FShSSO+6p2AO2gDvLEzRLOtPU0q1HsGdc34DRl5Ya3Xk6aGrpznMKXo6ZYUaw9YZaaOzozVbB7inURrD34a/EjmBbhboL80P1VSe4GsHO1oBtD9Sp7hiS6g4OGAn4t5ddkZ6bpZghrS0W3XwdNDY/kObI48ePUddQD5ojG3PPCa3NxJP+ApvH5V1LuATc9E9LMXPp/RjkKcAeowVbmhrmW43pQdeeOkjkYFH6qLnVuPScrhFsP6GxewNqaqW/rYCtB9QE+9vYVViS2hFsq1BrNbXZQFEFWuOnpsaem7UXiwh2srfRnUe4pffDgk0tzQ+hqamtCXaaO4ZnrBRPR+egbYJJsklGpZtPwqzdqhqbH2rNkab7zWLkGV2YivEFa3UxR+zV2PKG4kj54+B5VqFm8EUBeyPGXDZobHOYtX9rwLYFavqpJdh/hVpeSaCr4Is180MEYQwDRUtg6wU1TQ1LYNsEtRWbWsCt8XiYgr3KCHY3oaaWprYekuyGIafm4lpSuGCSpjJNZmtmCFnuALb0jjx4+BC1dXUoKSnBqpyTYgXUnyoCwAUjfyj3t0umVO7Dxobr8K0Pwi8VO+zaBxeFH3PdGU4XF5vKpcVwurQYU66txaKQ7fj+qgecLi+F0xULErQUTkHLFLm6DKOlBC/D6ODlRrnmjNFSrjtj9HVnfH/TC0sid2J2xFaMueFilJsuGHvT1Sghrhgb4qbILTeMlRLqhnGhKxQJW4FxUsJXYFy4u5D5cTvgkrAfP0b5YlyEO74U4oEvIzzwZaRGolbiSwsyPtoTqsR4YryUWC+Mj/XCHwmb4JkRiLkpu8AZ5Vr5On4VVElYha+lJK7G11KSVuObJB9Fkn3wjZQUH3yT4ovvUtfCNfcoVuadwC/pm/BNqi++SVsj5Nu0Nfg2ba0i6WvxrVYy1uFbg0zIXIcJmWvxffYG0UZzL2wQLJJJskkPniVviNTaJmDzQzVY8+QJGpsawWBNZEEKPMvOwqcxCD71V7DaTtnUcAPnWlNwqiURa+qv2refuivwrDiHOeFbhVuPrj3a1IpshEfoXqyPOIolIf6YeXOTQTZjZohGbm3GLCFbMOuWRkL9MFtKmB9mSwnfitkGWRq5C5tjT2JtzFHMidxmlKjtmKuKP+ZGGSTaH3Oj/TGPEhNglNgdmBe7A/OF7MT8OKNsSj6N7akX4JpwAAvidxklYTcWJOzGQkqiIosSd2NR0h6jJO/FIoMwCLM4Rco+LE5VxCv9GPbmBWNz1jmwBsiSdEWWph/A0gwpB7E0U5FlmQexLPOQUbIOYVnWISynZB82Ss4RLM85AtecQOy+fR37im/CM+8knPOOquKSHwhVCgLhYhDXwmNQpeg4XIuOY8XtE3ArPIapV9biUuxNwWJ9YwOePHliMSgjoe6gsfmBNEfo+G5pbUV1dTXu3LkDn7yTYg3IWVWBmFl1xC5ZUnMKe5ojEdAUhrnV9u+Hx//39m78FLoa3wd5CJkc5IHJV1di3k0/uIftxd/X12FysKci1zwx+ZonfqBc9+ogP97wwo83vBW56Y0fb64ySsgq/CTl1mr8HbYBntEH4RK1Bz+HrlYkzEcsVM/F6n8O9zVKhC9+jvDFL5TINUaJWoNfDPJr1FoYZR1+jVqHFQkH4ZN8DNNit4rFk7iA0m8x640SuwG/S4nbgN8N8kf8RphIwkb8IWQT/kiUsllo6o1ZZ7Ei/Qj+m7RZkeTN+F/yFqOkbMH/hPjhf6lStuLPNI2kb8WfQrbhzwyj/JPpj7UFZ7Gx8CJmZe/BX1nbhUzJ8ocq2f6YIiUnAFMM8nduAP7O3QFup+btwm+x6zH33Hrcvn1bsMikJ2tBmS7B1g4ia+vrUFZWhtM5ocKn2BPXX09tbGlry+3wXG9RF1rr0vvpqpfQ0mOuLOvos7bDppb5H3KgSHNkVoQf/gpb32nRddrSUiy59LQ2tXlS0z/RmzEvbocwQ4RtbUOY3NylJ2vpad148v23cauwNG0//kryU1x71hKabLSpTZKaEt0wIskDc7P3YnHuQYxLWSUGjCLoogm+WBoo0qaWonhCPPDhmZnYG3pGMFhTV2syaKQStvbqYIpotTYN9Ob7Soidd8y0dH+I6I+dHhK9wZbeEg7YBNwXZ+OnYAtga4C21fshgeZWQs3t6BsEe6sCtpWVBCTQtgwUzaHm3//EbDGCrTPUYvBIsNMNYFuD2gbvhwnQHDwaXHomYKeuUiKJ3YCanpARGZ74LGwJfjzugsLCQjFobLJh0ChBtwq2HESySlR1bY2I9pzMDMHwTA8lpdWOdNbeAJtwD8/2EpX8GVVUwN6MMVeWGzW2BmxbvR8SbC3UTD1VwQ5fr6wiQLg1Kwn0FGpqaBXsSHdjUpOVhKbuaGpCTe/Ht3GrFbCT/dTpXJbST7VhctWtp/F+mICt8VOPSPbAvJx9QmN/mbraCLYhmii0tcGdJ4MwUlMLT0g6NbcHPjo1A7tvnRLsVdVUi2pPXQ0aOwWb/ykHkVwHsqm5WUR7ioqKMCt1h5jBQL82k6SkWWDLtrfAVjX39QX4KdhbDBRVsHWEWgU7civ+kmDrDLUKdvxOjJNg6wi1EewDmCLB1vqp7TQ/pLamn1qCvST3EFSwbYSaQFNbfxqyCL+fcBfamlFwamuyaCmTT8Ks3VrU2PwC7RcZiWTRSto3dP1dzgzHqHRPAXR3w+y9CbbQ3Lne+C1irQJ20HKL+dTmuR/a4IvU0ubmh3aSwOibzpglwe4FqAn2v7F+mCfB1hlqAXb8aizLMICtM9QWwbYR6mFpHhie4YmhKe749PgMHI+6LJirrqkWM9E5GaYzF59NYPNLUmvTvUKtXVFZKUanzikHMNwQv++O1u5tsAn39Nv7MC8qAGM1YPfU/FDBvjYfEuwpERuMJkgPBoq0qcUAUc5+CdOC7WHMqTas98KkJnvMDzUAE7McE1Swt3aYJGCv+aGNKI5MUUyRJXmH8GXaapHM1KX5keYBCfYn1xZg+unVgrWKygqhrbUuvs4GjRJuqxpbam1Gd3inSK3NBO+onGR8k7xaSZDqRg5JX4A9t+oovCrPY3you2mIvJMwuS2aWkYUR990weyobVDB1hlqThSgxp6fsBPjogxg6wg1bWkF7IOYkmIAuwcDRWGCmEUUR6asFDa2Cdid2dRpHsKmprb+nElUgXNwLT5M2NZabd1ZpFECLbddgi1df7xjuFZNeWUFiouLsTH5JIZmeKA79Uf6CmwGkH4s9BOzT1RtbSX3oztQE+4xIRqwewFqAXacBmydoRZgJ6wGgy6WwFYHiZrcD5NBosb7YQlquvUE2Ln7oILdBdTU1MPSmRPijg/Pz4L7RX/BWFlFubK2zJMnal6ILdqacHcKttTa0tamh4S2NrV2bn4e/pewCcPzvTG6ZK1NA8m+BJtFeEbkeou0UGsJTd2Fmt4PFezIjXb7qS2ZH+qUrvAl+NcC2D01P4TXw5ChNyHBxwD2NrXmhzaf2jz3wwRsjfdDa35o/dQjU1difu5+Bex0H5HMZNH7YTA/OGAcmeklzK6JgUuRmZWpaOvaGuEJ6Y5tbZPGlmBLW5ujUi7EJLX2hYwwDE9YIUwSWwaSfQ228JYUrFI0tyZDTwwY7ZwkYA52d4MvXUHNeYoEe0HiLsUU0cGm1kLNibcK2Ifwd6oRbD00tZz5IsFemn8YX0qwNcEX4dLTQD0801MkOn18bDqORlwQ2pqMkTWtJ8RWbW2TxpZwa/3anB1cWl4Guv9WJhwE6zwQoq4Gkv0BtuIt8cJntxYZ00/thFpo7FuumB21XZRI6A2oCfbU+K0q2Lppak0+9YREHyzPNIKtJ9QcJAqw8/ZDBdsK1MIEyXAHwWYMYuG5jYKpkrJSMQOdFoKtfmupqeW2S1NEflFqbUYjWZn1XnUV7t69i6zcHPwas1aE27vybfcX2EJz53krcPcAagZfxhjA5kxyFWydSyRIsJm5p4Kt42zyCYm+Kth6Qy3ATvPE/LwDCtgZPmqYXKupCTUV4ohMRhgX4+uji5CWmS6Yqqy6Jxgja7b6rSWncmsz2NKvzeRuJnlzzhm1NkPtF1JvYUScmwi3EyJr0p9gC7jzV+HTW4tF0rp5RFHr0pMeEEsRRYLNYjYq2DpDTXeeADtpN76MNoCtF9QG74cKdto224rZSLvazPuh2tVmfuqREuyCI2INGhlVFBpamiDpHkJT007/5Oh0BIZfFCxRW5MtOZHAVr+1BFpubQabPyDcdLkwu4ruP1ZnvVtaIqJD6xKOiWSXLwTYliOS/Q22gDvXS/iNjWDbXqFJamwV7F6AWoCdsA0LJNg9gVpjfmjrU09I8hUpp39LsG0Ik1sbKAr/tATb4P0QYOcfwFIN2Fqoufb6MIMJ8uHZWXC7uF0wdLfkrmCKbNmSwSchtrTtNtjSJJEDST42mNaam5uLqdFbxOOFRXYs2dsDAWypuRkUUbU0y4/ZmNDEsmMK2Jt6pZgNTY+pFsHWbzb5RBXs7ZZrftjg0pMDRRVsjUtvZLon5mvANodamiAMxPwc6IKcnBzBUMW9yh4NGLWAdwtsqbXlQPLRo0eijKs0SWIykvBthJcoMGipgtRAAVvATZs7bEm3U08F2DH+okRCZ6mntng/RKUmC35qgr0weTe+jFlpKGijH9S0qVWw062ALU0Pbm00P9R5imnuUMEuPILxGb4ioijgTtfY1ZHL4HR4HsISo4QJUlpWKlgiU/YOGHsENn9Mra01SVhg507JXfE4OZVyAyOiXDCiYFUHW3sgga2YJYR7sVFb25D7MTbUTRSzYYkEwmtNzMPkWj+1WnrMAtTU2NMStWB3E2or5ofWTz0x2RfO2YfxtyWwewg17WkJ9rLCo0awDVAL116iYlfvCzkjmCE7ZEhrgpCxnry6rbF5MNra5iYJZ9oU372D/Px8+MWdxH9ilovBpNa/PdDAFnAXrFLgtgFqamiWHWOVJk647Q2oOUHACLan/XU/OgmTT0xeYxlsHaAm2EySW1BwEALsTF/Qpqb5QagZjPm/E9Ox+vJuwUrxnWJlZkwPfNaWbgC7wJZwS5NEeklEklRxMfLy8uASuVssgTbqjo9aingggq2aJRFLlaSmLsLkBJvFbKyB3RNNLWe9CLBT9uDL2I5gq8lMXHqO2llKN7L0JNj/ZPgbbWydoFbA9lLALjqK8QawGS4flumBD8/NwtzTawUjt4tvo7yiXPWC6GGCSMjtBlvCLZOk6Exn4IbuGgZuOCCYEbYJnye4Ggp6+3a6ziMB00OYBMVcEYbUu7M/1i2hR0JOFFB91Gb1qceGrbAKth5QC42dtB0LLYCtB9QMj09MWQPnnCNQwdYRatrSo9LNwKYHJItVdOfij2PuyM7O7hCIYdi8O0lOEmBr2x6DLU0SOtNbW5UKUtLeTsvKwO+3fDEkeQU4mByoGlveAFwCgnBbg5qmB8uOUWNzXqLWFNELas5ymWYBbJug7sT80OZ7mICtM9QdwM7yxYgsL3x8bT6+O7IUSWnJil19946wq8mMNhDTnbC5Naj5eY/A5g6kvc3ADTMAGd+X9nZBQQFiM5Lww01vjEhbiR/Kt8Or7hLcas9ifOlGjC5Zr7ssqD4mSjv8XrHLrn075ftgaJQzPg9ZrMitxfhcyBJ8HroE48M9RKmEqTF+4u8hoUswJGypUcKXYoiUiGUYopXIZRgqZDmGRlkSZwyNdsbM5ABRqembOG8Mi3bGsGgXDItRZHiMC4bHSnHF8Dgpbhgeb5QRCW5QZAVGJJrK96nr4JobiGmZOzAiyV2RZHeMEOIB5lOrkuqBkVLSVmKklPSVGKmKpzL5hBNQ0j0xOmMVFhcehkvRMXyXuwGfhyzBV4cWIjwxGmTitsauJjOyopNeUOsCtoRba29zkSZO5+EFcDAZmRqH+RHbxWDiyP1YHLgfBefaM1hac0p32dEUhhOtCaIoj737X1QWiGmJ24UdTVua2pnzEOVcxA0pp7AqKVD8/W+Mn8ifZg61kLit+DduK6ZS4qVsE75puvEo3LcqSduFhqaWnpbsL2Rt5mlszb4g6oBMTwmAlBmpAZiRukORtB2YoZGZ6TuhSsYuzDTIrMxdUCVrN2Zl7YZLzlHsvH1NlEiYnb0bs7P3YHaOlL2Yk2OQ3L2YIyVvH+ZIyd+PuVopOIC5GllYeAjbS4KxpyIEc+MCMOWYJ0LiIgQLtKvFVK+mJhFd1NOuJovy1WONLXfEu03a2/RFMizKxSULi4vEQCE8NVYMKPeWhiCwOQ6edRfhXnted9nXHIWzD5KxqeG63fteUXseLhWnMCdpJ2bGbMfMWKMsid+DLSlnsTb5BGbF+RslPgCzDDI7PgCzE6TswJxEjSTtFPvlvucmayRll6j3wepMm7LOISDnsliAaV7qbghJ2435aXsUSd+D+VIy9mK+QRZk7MOCTI1k7cMCIfuxIFuRhdn74Zl3QhSz2VR4EQtzDwhZlHsQquQdxCJVDmFxvkYKDmOxQZYUHoEqRUewxCDLiwKxtzwEm9POYPYJH1yPDRUMFBQVCibIBhmRdnVPXXuSQe1WV7B5gtK/zcFkQ0ODqN5TcFuBOzgpHM7hu7A8/zC+L9+Gb0q36C7Lak6LMmp/V+7r8b7HF66DU/QKjApzNogLJkZ6g3DPjvXHF+EuikS44gspkW74QkqUG74wiFOUG5yiVigSvULsl/t2iqG4mwhB5qpi3yesgVOsB5ziPDBaK/ErMVpKgidGG2RMoidUSfLCGHNJ9sKYZG/8mr4ZnvknMCd7L8akeGNMqjfGpq4yStoqjJWSvhpjpWSsxliDjMtYjXEZPopk+mCclCxfTMjdgHlxAZh5fDUuR98QUOcXFSqVnOrrRY61DJmTGT1NEAm3bmBzh9LeZkaWzCehp4RVW3m30g0YmhyDBbe2C7vOqZO8Ejmg6+7WXq+IteMw0MQBnRwocvDIYjY0S8SAsRfqfkxP9seitL0YH+dldOeZB156MJt8YupauOQdxb9ZAXYVs6FLzzxMLvM/OFCkTf33MU8TTU0GxGJIhjwQmbXXG1CTRV3BNodbekqYLMUL413LnJKI5Fj8EOyp+LmLmTBlOWnKGmydfa432DyWFm6uCKuC3QtQ0/thEexu+Km1HhD1vcb78V2aEWw1Q8+wPIal3A+CrBVzqEXwhX5qej+C54uBYkhshOjrvMICpfRvXZ3wmvWGB0Rqae1Wd7Ctwc2QKUul5RcViAuOSUvAb1dX4T/RyzDy9mpdVkwghL0BtoA731toblY/Jdj/xm7plWI2Ktjp+zA+XqOxtWBr3Hr25FNbBFtm6HGrSWjSAm1JU8uIIoMvrLL1/eGliEiIUaAuyBd9zr6Xbr3e8IBogZbvewVsLdy8EGYCcnKChJtmCTV3Snoapl5bh09DFwutqEdx+d4Cm3CPLFwtooGs+UEPiMj/6IW6H/SCLJZgWwFam/sh4O5G6inBds0PFKZIZ1l6tkDNiQK8EVhj74+jK5CUmiz6Nl8DNfueDPQV1OSv18CWcNMNaA631ubOysrC8hv++OTGQiUr0M66gASvNzW23P93RZuxKG2fAnYvQM0Q+QwVbO9eqfvxXdo6A9g7jDU/uqmpaVMTakaW/9+xqZh3eh3YlxxH5RvMDyoyLdRkobdsaqmp5bZXwbYGt7S55YCS4fdN4Ucx7OpicfcrKa/22d29qbEJ9+Sy7fCoOCvg6ypLT+Z+KFvbs/QE2Bn7MT5BA3YPzQ+ZfkoNLcGemq0B20bzg6YHJwmIKV3hS/HJ4WnwvbxHpFAQ6gKNTd1fUJO7XgfbEty0twg3i8oX3i5CXn6+aJhjMVfw9RUXYXeP4mplduSP9AXYjJ4urjgmPBYMwUtR5ydGatcl53vboRYaOzUAiyXYGqB7Yn4QbDlQ/C59HVwLAqGC3Q2omaFHsFm6YvShuTgQclaBOj9P9CX7lH3LPpbmR19q6j7T2PJAWlcgR8bMvaX7h0GcYs7Ayc8TtllkchymXPExM01s1959BfbS6pMYkb9KmAoEWy+oFbB3GMBe1St1PyZpwbYBaqaaSi1NL8v/nZqB3466ISwhSvRZTl4uGFFkX0qXnvR+9AfUfaaxrcEtgzgMsXLGe15BvmgoZn9539iLoZcXChvuC83qrF1p8b4Em+cysmC1cFuqYPdkjqJhoMiw+eKMA/gq0Qi2Pd4PrfkhtTXdeSrYOTuNHhArLj1CTS1N04MVUD89PB3u57cLe5oOAPYZ+459yIAc+1RC3VvBF8lTZ9s+MUW0J6DV3AzisCGYW1JVVSUqa3LgwQYj3GdigvHDRXfRoFyhdbQYWHauvfsabAF3oQFuHaDmpFvmgCzRgK0n1CrYXNtFgm0BaqGl091FhaYhia748OxMfHtoEU5GXBZ9wz6i54MVeNl37EP2Jfu0t4MvWp6sve9zsHkiEm6ZW8KJCqwLWFNTI/yewh2Ynydst7T0dLheC8DQSwtFwUKuFKydlWOuwfsDbJ4DgzifxznbN0fRLKo4M22nCrbeUAuwM9YrixYRbDOoBdCGcr5cLoMpvJ8cmoqlZzchJTVF9EluXq6IJDMuwT5j37EPtbkffeX9GFBgm8PNDC+mL3IULQeVYua7we6m9j4dcxW/XPIUs1zY4OZAy7/7C2wen35ugmhpsGhTPjVNkTgXCLAzD+CrpFW9UvdjkgQ71xxspei6qHoa6ywWi518ZBmO3bqgamna0+wbOUhkn7Hv2IdUVP1pfmgh7xeNLU9Aam6tr5uDStpqJqaJQXtnZGTA98Z+jDm/RMwwZ0FMBnW090WRBQAACbVJREFUGrw/wbYGd3egtgh2N4IvWu+HteCLALvoOKYawFZWv/UUKwnw9x9dnoNRB2fD83wA0tLSVC1NM1GaHuwj9pXW8zFQoCZf/Qq2FnDCLZOnmNIoTRMGc1i2WHpNqL1DEiIwP2gzhl5aICYNc+YL4ab0N9iEm2aJ1NxWoTYzPwi0FOZVLxEae7VxTqI53JrcDzlItAVqRgknZRpMkdwdYuVbamh+zjof/zk6E7NP+uJGbJiqpdn27AP2hTQ92EfSnu4vz4fkx9J2QIDNE5PaW9rdfLzRF0r3EUfc1BQFhYXIzs0RGoRRrtPRV/HPJV98dnm+sG8J+PzqQPg0BHV7zqM0ZbraMkBDPzbdfZ19d2SRD4bEuyrLzXU28VYDNMHmDSHAzjqIr5KtgN0DqKmdJ2Wug/vtE5iet0cATTv6o8Dp+F+gB06EXRIeDwbN2NYMuLDt2QfsC/YJ+2Yg2dMDGmwt3NI0oduII22t9qZ9RxeTFvCD4efxx3kvAfiUZD943juP3yp2qiaKpapUnUHZ2f/ZCjb3IWzuBNdup54S7KXWwLYT6iGp7iDUHJ/8kL1RBGj+iFiLjwOn4Zejrth/87QJ0Hn5ecKW1mpp9gX7hCkS7KOBZHqYwz1gNLb2xKT2pmlCzSC1t7S9WXi+6PZtYZ7kGFyDmZmZIODLL2/FnBtb8HW0p6gAyxUXpJkiYOvmSmfmkHcHbBXuRAPc2oQmw0BRmh9a7wendVkEu5tQC5hT3TEsfaUAmkGWzxNcMO6aC6ad9cGik+sE0Gw7mnh04dHjUXS7SFmCrqpKjHe0WnoguPK0rFh7PyDB5slKuLXam3YdJwvTc8IoFx+RhSz1kJer+r5pogTFhGDZ5a344txCfHJzoXBpSTehMtD0tVhb0BxiS393F2wBN80Swi3BtmB+qGAnuIr5ikuzD+HrZB+jjW0j1ENSVoAyNG2FAnT6SnH9n0UtFctgDDsyC4tObcCliOtCQ0ug+QQsLCoUbcq2ZRuzrdnmg0VLayEfsGBLuCXgtL3pUuIonKNxBgQ4kKHbiZEv2t/mgF+PD4Nn8C58d9YFnwbNFwNNBnpGlazReFMUyG01V+wBm3DT/ufgjr5uqaWlTa2FmiFrobG1YHcBNctbCJhT3ZSVtwhzuofw+398fQE+OjkDXx9ehBXnt+F6TKgJ0Gwz2tFsQ7Yl25RtKz0e5m489sdgeA1osGUDSripvc3NE04MZWfQFpSA0z7Myc0Rj1dq8KSUZOwNPY2ZF9cKV+Gn1xeITqe7UAu5VptbA91esIXmLuQqtYRb8YCoQJstZDQrczdUjW0B6s9ZKFLMeHHDsFTDMnJi5S2aGq745OYi/N/pGXAKnIdpJ1Zh1/XjSEpOUoFm29DTQWXANpN2NNvS3OwY6La0ZMR8OyjAlictAaf25gCG7iZGvNgZtL9Zz0RqcFajYudl5WQLLwofuYQ8ND4SfjeO4J8LPirkrDM4LMtTWd6vVHEbGv3jRo1O2HsCtjRLCLc1qKmxVbBTfPB5opsiAmZXsbjncMKc6iE8GtTUPH8WqVdgno8pxz2x6coB3IwJM8KckyPaQtjQRUWqhmabSaDZlmxTtu1ACrbI/u/OdlCBzQsj3J0BLjW4tMHpf6UGF14Uw0CTgFNuxUVgR8hxLLi4ET+dd8e4YGc4hbtiXLI3vs5fhwmlWzCxYiu+K9+KSRXbxHZK5V5saLgGj9oL4v/5HYtS5ocJVuSb4k1iYc+xSV4wijfGJiuyOPsgVuYfxy8ZG8X3vkpfjS8NMi5tFcbEr8QXoS4YfnkRvji1AJMDl2PuyTXYfvWIgJmDQV4fb2YxuM7NEW3AtuC4hG3Dp1xXQLOdB+tr0IEtG7orwGkncgBE/ytzGugm5ECTGssS5PFJCTgbcRV+1w4Lz8rUy2vxW/Bq/BTug98SNuDP7O345/ZuLKwMxNamEKxrDMbM6sOYWX1EkarDmKmVe4cwsxOZXn4QU3L88WfGVkUyt+NPIdvgnn8MqwtPY3rmTvyetAm/RK3BDze88N1FN/x42g1/HV+Jxac2YuPFfTh16xLiEuMFyCYw5+SIa6W5wWtnG7At2CZsGz7lrGnowQy05GPQgi0vwBrgdBHS78qRPQML0kyhxqLmYocT8qzcbDHoFAEJg7lCjUdYzkddw44bx7DiSgBmXVqPXy944serK/FPyAb8HrUOX8Z4inyObzLXYkLuekws3ITvbm/GpLt+mFS6Fd+XbVOkfDu+l8LPSrdhUokfJuRvxPh4b4yL9MCYsBVwuuGMUVeW4IfLHvj9vCe+O7kcPx1zxbSTq+Fyxg/+QUdxNixInBvTC1SQc3KEZqbZxWviDSy1M00zXjvbgG3BNmHbWDI53gWgJReDHmx5IeaAy0EmXVV0WVFDSS3OPBR2uIRc2uPU5EKbM+qWna0OPgkQQUpIThLmy6mwK9h58wS8ru7GwoubMfWCL/646IXJ51dgwnkXfH3JGeODXDAuaDlGX10Gp+DlGH3NWbwfd9UZ46+64OvLLphw0RU/nHPDLyfc8M9xLyw4tR4rz/sjIOgIToRcFGYFnyQSYgmyMDF4jjnZ4nw5luA1aGHmNWq1s3TbMS7AttHa0O8S0JKHdwZseUFawDmi1w40pRZnRhrtS3a81OQM+tBDwFXQ8gsKlOCPNFu4tQA7QaNQwxM+JgwlJCUiIi4aIbHhCI4OQVDUTVw2CN/zM/4fv8Pv8jf8rbSL5T61EBNg4eUxbAkyc6F5rjxnnrvUzLwmXhuv0ZJ21no53kWgJQfvHNjywrhlxzHsSyHg1FT0y/IxrIWcmpyPag6oaIcSEgk6tSC1IU0XMTeTuSp5ucjMzkImQaM5Q82pAV9qe5u3Bo8F4c3MyRL75qCPf3PgSz+z1MhakHmuPGeeO6/BHGZeq1Y7D+QQuLbf9Hj/ToMtG8iSFtdCzqAPH9UMStAOlaCzfAAf6fQi0NdL2Gm+cDBG4KkxCVxhYaHQ8gL8vFwlUMRccoM3Rpo43PIzCm8ICn/DJwT3wX1xn9w3j8Fj8Zg8Ns+B58JzkiDzXHnOPHdeA29YLczvi3aW/azdvhdgay/YGuT03dL+pE0uQeejnFqQSVh8vBMoPuqpJQkZNSaBo4YnfPQ8SPgJJYUaVivycwktf8Pfch/cF/fJffMYPBaPyWPzHKRGliDzXHnOPHepmd9nmLX9/N6Brb14LeR8TEubnJAQFmm2ECCaLnSPEXZqSQ5GqTEJHDU84WOQiCDKG4BgUqhlKfJvCSy/x9/wt9wH98V9ct88Bo/FY/LYPAepkS2BLM0MXpPjBfx/pvjmcYBQos8AAAAASUVORK5CYII=;" vertex="1" parent="1">
          <mxGeometry x="293.94" y="358.46999999999997" width="52.75" height="55.07" as="geometry" />
        </mxCell>
        <mxCell id="yJE9GD3ZsEBa4JYX66G7-14" value="" style="html=1;shadow=0;dashed=0;align=center;verticalAlign=middle;shape=mxgraph.arrows2.arrow;dy=0.67;dx=20;notch=0;strokeColor=#0066CC;fillColor=#FFFFFF;" vertex="1" parent="1">
          <mxGeometry x="419.32" y="369" width="50" height="30.07" as="geometry" />
        </mxCell>
        <mxCell id="yJE9GD3ZsEBa4JYX66G7-18" value="" style="endArrow=none;html=1;exitX=-0.002;exitY=0.078;exitDx=0;exitDy=0;exitPerimeter=0;entryX=0.997;entryY=0.076;entryDx=0;entryDy=0;entryPerimeter=0;fillColor=#f5f5f5;strokeColor=#666666;opacity=50;gradientColor=#b3b3b3;" edge="1" parent="1" source="yJE9GD3ZsEBa4JYX66G7-1" target="yJE9GD3ZsEBa4JYX66G7-1">
          <mxGeometry width="50" height="50" relative="1" as="geometry">
            <mxPoint x="559.3199999999999" y="410" as="sourcePoint" />
            <mxPoint x="400.32" y="267" as="targetPoint" />
          </mxGeometry>
        </mxCell>
        <mxCell id="yJE9GD3ZsEBa4JYX66G7-19" value="" style="endArrow=none;html=1;exitX=-0.002;exitY=0.078;exitDx=0;exitDy=0;exitPerimeter=0;entryX=0.967;entryY=0.966;entryDx=0;entryDy=0;entryPerimeter=0;fillColor=#f5f5f5;strokeColor=#666666;opacity=50;gradientColor=#b3b3b3;" edge="1" parent="1" target="yJE9GD3ZsEBa4JYX66G7-1">
          <mxGeometry width="50" height="50" relative="1" as="geometry">
            <mxPoint x="245.48000000000008" y="523.58" as="sourcePoint" />
            <mxPoint x="390.32" y="523" as="targetPoint" />
          </mxGeometry>
        </mxCell>
        <mxCell id="yJE9GD3ZsEBa4JYX66G7-21" value="" style="shape=image;verticalLabelPosition=bottom;labelBackgroundColor=#ffffff;verticalAlign=top;aspect=fixed;imageAspect=0;image=data:image/png,iVBORw0KGgoAAAANSUhEUgAAALYAAAC+CAYAAACYo/VpAAAgAElEQVR4Ae2dh18UV/f/8w/9vqlP7MESUzTG9OR5EpPYe6cIAgp2RQV7F3tXxIL03nsVpUovgh3sn9/rc2fv7OyyC8syNN19vY6zrLtT7n3PmXPPOffcD+B4OVrgHWyBD97Ba3JckqMF4ADbAcE72QIOsN/JbnVclANsBwPvZAs4wH4nu9VxUQ6we8jAWwBv8FaV12/foDui/S335Xjp0wIOsG1oRy28EloJpA0/79ZX5H7Nj+OAvlvN6PCKmDeXFmIJmfl3zP9+9fYNHr9pR9OrR6h52YqyF40oel6LnLZ7yGqrRNqzMiF8z8/4f/wOv8vf8LfcR1cveT5y64Ddeos5NLbGlKCWtPZqf/MStS8fCFATnt3FpYfp2Nh4DS51ZzGn5ij+qtqHnyoD8G25H8aVbcSYsvVwKl2HL0rXYFTpWiF8z8/4f/wOv8vf8LfcB/fFfXLfPAZvBB6Tx7b24jlL0K195338/L0F+y3e4jUUKMw7/sXb16h+2YKkZyU48yAZW5pvYlHtSfxdfQD/vbcHS2pPYW5NICZX+luWiu2YbKtY2Af3zWPwWDwmj81z4LkkPytF9ctW8BzNXwSc18Rre99f7xXY7HCl2007np/Xv3oooDn5IAkbGq9hUe0JzKg+3EGW1J7EtuZbWNcQjJlVRwxyGDOrjDLj3mHYItrfGN8fEfve1nQLPJalc+C58Rx5rgSd524Os7VrfV+Afy/AtvSofv72FQqf1+L0g2R41F/Af6v2YGLF1g4yqWIbvq/YBm6/K9+Kvyr3Yl3DNaysvYAJZX69Itw3j8Fj8ZiTyreq5zCx3K/DOfLceQ28Fl4Tr037snT92v9/F9+/s2BTJ9P+1OpmDtAK2mtwsCUGs6qPYGzZBtX+lXYwbeDRtI1L1mLUXV+MurvGRCaXbYdX3SUsrT5p8rn593ryN/fNY/BYHffjK85tdMk6Ya+PKjHa8LwGXhOvjdfIa9UOSi21ybsINa/pnQObj2DzxzIHYOcfpmJB7fEOMBNkMcizArI5WP0PtumNxpuPN6F6DYaBqoSc18xrZxtoX5baSfv/g/39OwO2+eOW2imzrQLrG4PxfcV2E81sqpXNQen874EHtun5EnI+cXiN8inELduAbcE20T7FzNttsAMtz3/Qg82O0brpXrx9hbz2KqxuuGzSsXS1GU0MUxjMtXJnfw90sLXnLiH/wsxcYduwjdhW8iXdhvLvwb4dtGCba5qnb57jyqMMrGsMhk9jEH6p3CHApuYS2suCvayFwNb3gwls4zX5wqlE8aFTe7Nt2EZsq8sPM8C2ky/zdpWfD7btoANbDoBkQzN4QaCnVO0TIM+rCcTqxiD8XrELQlOZDf6MnW2f1h6cYGuv1Re/VezE6oYgsK0IOtuObagNBJkPvGV7D5btoAKb2kTah9yGPc4Xfl5pS9LcWECwG4Lwc3mABY+CtoPtez/4wV4j2sa7/opoK21klD7z8CcFJm3MNh+Mr0EBtrmWZr7FsrrTqg0tQ9XU0HOrjmJ1/RUH2J08qXjTs43YVvSq0FTT2uFsW7axfA1G7T3gwdYODJtfPca25hATl93osvUQvlxDRzrA7vpJZAq28fscXMunH/3hbGu2uXxp+0J+NlC3AxZscy1961Eefq3cqTY8gbZkQzvANoJqbTxhDWzl+77CeyQBZ5uz7eVrsGjvAQm21q5jHoR3wyUVaOWxyaig5Q50gG25XbTt1TnYyu9l0EcCzj5gX8iXto/kZwNpO+DA1j7uIh4X4IcKfxVqc7ND21nyvQNsfcCW7ak1T9gX7BP50vaV/GygbAcM2DQ9pBagX9Wv6aYJ0JbMDtn42q0DbH3BVtrW1DzZ0nRT9X2zzwai32RAgC2B5t2e31aNf6sOmECtHRxqIbb03gF2b4Ct7FOrvadWHUTesypVQWv7UP2wH9/0O9jax9nVh5n4qnyzgFoMDjn7xIotbe1zB9hdt5ktNra19pVhetreX5VtQlBruoqvti/VD/vpTb+CLRuCd/uu++F2a2ltJzjA7l2wZVur2rtkDXY0hqr5OrJP+4ln9bD9BrZsgEev2+Bed16FWuR1MGmnm5paft8Bdtdt1xONLduZW+afCK9JyRq4VZ3Gg5dPBViyb1XK+uFNv4At7bHqFy1qSJxAC6jtBFo2uAPsvgObba66BUvWYFrFAVS2NQmMZR/3A9PikH0Kttbzcae9Dr/d29Uje1rCrN06wO5bsJW294VwxTJzsNQfRU+UQSXh7i+PSZ+BrYX67vN6UXaAjzGWIuiO10MLsaX3DrD7A2zlmGNK1wtF9UPJtn6Hu0/A1kJd1F6LlfUXRb6H3lATdAfY/Qc2259wM89kRdVZ5D6qVM2SvtbcvQ62hPrt27dIfVaKDU3BIkTOKNa3ZVvwTam+sqzmNDY2XMfflft03zfP9b8Ve0R5BI/a872yfx6D+2Z5Bx5L7/bh/tg2bCO2VW/snzVVGIJfU30F8a1FYN/3tVnS62CLC3r7FtTUhPrUw2QEtibCq/4i3GvP6y77mqNw9kEyNjVc133fPN919cE43ZqEw/djemX/PAb3zWPwWL3RRmwbthHbqjf271l3EYEtCaKvfe9dQvaDchXuvhpM9irYEuqS5w1wrz8Pz4ZLCHyQgAMt0XCuPYOlNad0lx1NYTjRmgDf+iDd983zXVV3Gcda4rG3OapX9s9jcN88Bo/VG23EtmEbsa16Y//s2wP3oxDYGi/6fHnpCRQ8vNencPca2PRl8hFE78dPlTswpmwDfqoIgHf9JbjVnsX40o0YXbJed1lQfQxr6q+KqWG9sf+fDEn6zjWndT93eb7cNycC8FjyMz23nDbHNmJb6blfuS/2LfuYtVF+rPAXx/i+cDPyH1YKJvrCz90rYMsTp5/6j3u7xUiZA8WJZX7wqL0A55ozGFOy3u4gjCVviPzMMXjs38GjGECWrBd9zL6eUOonBpQj7/ji54KtqHjSIKwRyUhvmSa6g03zg6/Hr9swo+qwCjVderxIB9hdg9d5Jaiufy9vcmtbvSKP1vZPpUXlJcEWsJeuB+H+u3AXWp8rs3IkK70Bt65gyxOlCbKy7oIafJF+agfYtkH5LoJNuBnEGVG0Gi7Fx/D6tVItVjKjN9y6gS39lIR6T3OEgFrMdtFk6DnAfr/BlhOHR+SvwtbSIGFvE2jJjp5w6wa2HCzeeJQjoGZU0Tz3wwH2+w62klvCJ/jwHC9cqEnotcGkLmBLqIvaavBN+RZVW5vbYA6wHWCTCSo82tvjsnyQ3VLaK3D3GGxpIz191Y7pVYc62NVauB1gO8CWPDCfe+RtH/yZvR0P258IuCVLepgkPQKbtpGQt2/h13ijU6h5QQ6wHWBLsLkl3MPzvOFz+4wAW/LU72CzqDgHi5GPCqza1doLcYDtAFvLA3O5aW8PzfBAcHWyYElbqL4ngNutsfnYINSNLx7i54oAo7buZKKAA2wH2FqwpdYeWeyDiWlrUP24UTClR/DGLrCle+bNmzfwrb9ihLqLKV0OsB1gm4Mt4C5bL0wSt7yjqn9bMmav1rYLbOkFidCYILbU/XCA7QDbEthyrZ+h6R64WpWki9buNtjSBGl5+QT/q9xj1NadmCDyYhxgO8CWLJhvpZfkx9QNqH/S0mO4uw02tTVNkB1NoQJqEYTpwgSRF+EA2wG2ZMHSliwNy/bEuqJzgrGe2NrdAluaIIVt1RhfsckItg3amhfiANsBtiWg5Wf0kjBw45TqibTG20Jrv3rTcQViW+xum8GW/mpq6xW157plgsgTd4DtAFuyYG0rfdsLMvfi1atXAm57BpI2g03bmlBHPyoUUDMXxJYBo/YCHGA7wNbyYPm9smjskOQVCK5MEszZE5G0CWw5YGx/9QJzqo7Ypa15EQ6wHWBbhtm0Xai1mQE4JdUPT9qfCa3dXbhtApt2DrX19QdZdmtrB9imnddZB7+r+didXbPp//mKiOSQlBU4VRIp2Hv52rgmpS42ttTWz149x7R7BwXY5umopidlvQP7SmOvbwjGrHtH8HXpZt2nnw3mVcOc7q7Fd2VbMfPeYaytv2pYXMl6f9nar+bfszSDxvw7Xf1Nxqi1f0vaiIdtSpJUd7wkXWpsqa2vtfZMW/NC+gLsJdUnkfa0TNzlSU9K8HP5Dl3hHsxgL6g+jqrn9/H89UtEPS7AwurjuraNhFUPsEXQpmQNaGufuBMh+rM7HpJOwRYLyb99ixevXmBDwzXMqjmKOTWBmFl1xC5ZUnMKe5ojEdAUhrnV9u+ns+Mfuh+NJ6/a1YaIeJRv17laOwbn8u2/H4Xtjbd03a/2eNw3j8FjaT/vyft51YEoaW8Q7UKz8uGrZ9jfHKXb/rXnxr5lH7Ov2efa/+vOe7I2rWQ/XNMP42nbU8XWfvvGFksEnYL9xhCMKXhaLZYo5jLFXByUpQHskU0NN3CuNQWnWhLF9H979tHVby60pqpgswOpnVgYpqvf2fr/fg03ceFBKk60JOi2T/Njc988Bo9l/n/2/O1TfwXBDzNVqNkuj1614Xxrii77Nz8nlnZgH7Ov2efm/2/r31xkld9dnn0YCfdylfPvKdjSb01f4pq6IPxYGYBfKnbih3J/u2WKobQWC7b8UrHD7v10dg6cGS1NEXYghX//VblXl+NNvXcAWxpvimI2nZ1HT/6PhXJ4DB6rJ/uRv2X9kNoXrSZgs03YVvI7em7Zt+xjllFjn/dk32RuUuFmLE89gBcvXtjs17aqsaVtnfukUl0wVOTP2hhllPaWdtsXNjbrimxvCgVzWSTY7a9fYE19kC725GCzsZ3ursOF1hS8Nni22CZsG7YR20rbP3q918fGVga1Mho5LM4VCTV5ok9t8ZBYBZsjUE6R31qvrN5lrydE21h9BTa1xcXWVLx4/UqFu7itDpPKtvW4Iwcb2LOrjuD+y8dqO7BN2DZso8EANvkROSQZK+GZESiYtMU7YhFs/pB3dkN7q7ImuYUZ51pgbX3fV2DTLvu7cj9ynt1TO5RPoOP340GXl63na+l7gwnssSUbkG7wEMmnV86zStE2bKPBBDbrkXwT542KllrRp115SKyCTW0d1JKuBmRkzqylzrb1s74Em9WOaEM+e/1chbv15RNRmtfW87X0vcEC9hd318Kr7iJevjE+tZ6+fi5KFPdHJShLbWn7Z4aATZIbjhaF2KS1O4BNFx/v7pcvX2J59Sm7w+eWTrqvwf6qdBPo7pPaitvgB5mgJrN0frZ8NljAZkHLgrZqk2sPf5SP8aWbxFN4MGls9gurSA3P9cLMpAC0tbWJ6+psIZAOYEvb+vaTanxdpqy52NNBowSmr8HmcVk8Xfq1CTbfsya0PKfubgcL2IH340wGjLzu/1bsFtc9+DS2UmiHKa2jYlcgrbZIaO3OzJEOYNN3TRffiab4HoXPLQHTH2DzPM62JkN6eQg37UxqLkvn2NVngwFsrljASdbyScVrZxvIaxuMYPPcOYgcmuqOgJzLglGyau1lAvYbLqnw5g3aXzzHwqpj7wzYv5bvRFl7o9rRDNpsawwB7VDZ2bZuBzrY40o2IORhjom2Lm1vwC+a1ILBDPbwfG/8Hb8Fj58a3LlvLWdrm4AtzZDixzW6myEEp7809hd312BD/TUT91/Nixb8VrHLLrC96y4Jc+bXip0iMWxx9Qlsbrghom03HmYj6nEhkp+UIO/ZPZS014vgSM3zFtxpq0PWs0okPrkjbH/a+0fuxwgfO4Mo9OTQNnatOQsegzeRrTec/B7D8LxxpbZ+8fol1tcHg20gvzNYwZY+7VExK5BWVdipOWIC9qu3r4WKv9ycKrT1F6JSqpL4LRulJ9v+ApvnPKHMD+lPy9UOZ8efbkmCE4u2aDrd0nu6CMeVbMRvFTvh33hLuNCK22oFtE0vH5ncMBKo7m7pval70QrWP+SgL/5JMdbWB4lsPA52bXm6TCzbirSnpSbXmPq0VCgU7XUNVrDpmSOTTIw6kBMsWCWzll4q2NIMYdjSt/ay7maIgKufC79TKzIKKaFj4KKzDDcGdKg9z7QkiQQiRrzkb/tq2/b6OTKelmFvcyTmVgWKG0wLqfZ9QGOoyU3Ga51XFdjhxh28YCt2Nr0jS5L2qN4Rsmv+UsGWZkjDs1aRo2CpDLC2Ee15358am+dLzXvrYa6J/Zn85K7JsiGEmTcAE4TuPW/G41eKa6mvQLZ2HA4A6YcvbKvBzqZw/HvvgMkAmCZM/YsH6o3HEPrNhzkWA1KDHWxWjvolbh1KG6usmiMq2Gw4ekNSH9zFpIptiiliw2O6O4D3N9g8VybZawGgDcrVF74t3SKW0Mt+VmkS1LEGWn9/3vzyMaIeF2FpzUkB+MmWBJMblmbN9HuHOmhrtsFgBlu4nkvW4MtEL9wsThLMWsodEWBTkRNsmiHnm5MF2HrkhphDPxDA5jntbgpXNRsBZVKQ1tfd39B29/hNLx7h6StjhJW/39kUZhHqwQ42z59sfp21BrsyLwlmya65MSLAlmZIe3s7ttRdf+fBpsbiTJLuAjRYvn/v+X38WB7wToIt6o6UrsO3hRvglngAT548sWiOqGDTDKl50gSX6jPvNNic83eoOVrYq4MF1O6eJ59AB5ujhEfF/Kn5rmjs70r9MCN+O+7UlyveEbPCOgJsqnLmhmS0lmBm9RHFxr6rn5tPNm5/miKMNDInm/5rXm93YRls3+c18lpZDffLko0m2nsw29gKS76C0f8mb0bonRTBrrmd/QFrXLMRaF9fakrBjOrD+L6i+4EBCW9n2/4Cm5HHqw8yO9ihgw1We86XS6gEPch4JyKPki2aI2T0f5nbsC8ryGhna9x+H9AH+Or1a9C+3lEXIsCe/I6AzdkjnLVe+bz5ndfQXUFf3t6IRdUnhPtvsGtsgk1GpxTshFfiYcEuGdb6sxWwX73Ck2dPsaL67DsDNmug0JbmbOyuOv19+f8Hr54K23tq5QExSXawTDSQmlpuJdj/3t2LmdHb0PrwgbCzTcCW9nX94/uYce/QOwB2oCiNwGgdfdTvC7S2XifzSFKflGJrY4iIZEpY9NzqOefR2nlRY0+rOIhfo9ehrL6qg539gbSv81rL8W/VASyqPYm/KveJETU9CHoK84HXNQSrM7z13Lfc15aGG6gxm5Fta6e/T9+ju3NTw3Vd+1f2AWelc6Y9+5p9Lj/Xc0tGF9WcwC9xaxFXkinsbO0A8oMXr17i+fPnSGy5jaW1p7C1+RbWN1yDZ91F3YVZZqdbk3C8JV5cuJ7H8Kq7hAPNUWh8acxDfp9AtedaG148EDVX2HZ69gWhZh+zr9nneu5b7ouMktUZaTsQfDteMPz8pVKegXkjAmwOHIMb0zC3JhC+DVdFSubC6hPQW1hX+9D9GOxtjsLSmlO67n9HU9g77Zu2B1xbfsNEMOam69nX7Fv2Mfuafa7nvuW+3GvOwbfxKv7J8sehzKtiANkBbM4h21FzUxTFmVl1WDw6rNk2Pfm8t9x9q+ougemjtnSk4ztKBQJtO3C2jSjm30X6rq193xc2NgM0jLlMzFoPr4TDItOP1gfd10Jjv3z1Ck+fPoX3vfMGsI8MGrCZrbe85hSaHVD3+KZmYhhTXG3J++4K8L4CexaDiQWbsCAmQDBMlo1gv3wp4u2LK48rYN87NGjAZgmw6nc450OrVfvifXl7E/6s2GsSpewKYkv/3ydgsxxy1WF8X7QF/0RtwqNHj4Rn5PUbZR7kB4w4Pnz8CDMqDgqwZ1QODrD/V7EHrO7UFx3+Ph0j71mVSZTSErhdfdanYN/xw89hPmhsbjLxjHxAj0jDw/v4s3zPoAGbuQ8pT0rfi5yPvr6p6P6NflzYo9orfQb2vUOYXLoN34evQnldlfCMSJefAJtlo34u8x8UYHPu4amWBIemNlSS7S3w6ToloF1pZ0v/35dg/1C2HV9HrETBvTsCbDmA/ICuvjv3qzCpdOuAB5szrema0s5b7K2Ofd/3y4kX9lao7VOwy/0xNtIdmeWFJi6/D+jqK2gqF1OjWAN7INvYzP9gKub7Dl1fXX9FexM4lrGklTv7rK/AJqs/VvjDKdINySU5wuUnfdkC7LzmMjFvjl8aqGAznzrTrHxCX3Xw+3wcloHobq3DvgZ7RJQrEkqyTMF+9uwZshtLMK50g6B/IILtVLJOzFPUFi/vCWwvX71E1aNGFN6vEFLzuAkcdPRkn/3527aXz1H5uAEFrZUoflAFVhpgtVw9zonVWplT0p3yy30KdmUAhke7IKY4A2SZVczoy/6Af2Q23sGY0vUDFmxWSDJfasLeTnvQ/hh7coIwOXglhp+bj2Hn5uGn6944XhQGAmLvfvvrd3VP72N9zhlMjlyNETeWwinEBX/FbkZodTpe6XSzsjzc792omtXXYA+NckZUcaoAu80E7IaBC/bokvWIe3xbF+DY0ctiduP/nZiK/zs5zSinpuGj0zPglnBAl+P0FeS8EX+LXodPgucZZD4+CVZk2I0l2F98Q7frud6SiS/uGMukDRgbuzIAQ6OWm4DN9v+A4fTM+jv4snTjgNPY9IIwh0Gv0ggZDcUYcmaOEWjCfcooH5+ZieymEt1g6G3Ar91Ltgj1J9fmgzI21A31z/QZbD948QRzig9iVHHXc2H7WmPTxo66nSbC6jRFVLCzG+5i/AAEm4XbWXtOD0Bon/tnXsCHZppaBfv0dPzf6enYknFOl+Ppcc6d7YPa2iXtYAdNLaHm9j83FuFypX4+/9C6TDile2MU61R3kjDVp2BX+GNEpAti76QLsNueK2t8Co2d31CGb8u2DDiNzTxhRsI662Bb/+/l65fwSQ40amuNpibQUpzj96J9ENjaD54/wdykHarpIUwQg6YWcF9fgE+vL8Su28G6tB/bmTOS5mTsxtBkt07h7muwnSJdkVCc1RHs2w3lmFy2bUAFaL4t8+uwXqOtEFv6HjX23pyr+OjUdBPzQwItt2vTTorJzZb2MZA+e/7qBVZmBBrBNoP6k+sLhMY+Wx6tG9i8/sj6bIyMdBEF2K2ZJX0F9sx7h8QakuMi3JB2J6ejKVLWWIVfSgMGFNgray/oXi6huKVKeEHMzQ8JNbcp9YW6gtCbN0N0Xa4CtgWoCfaYMDdUP23S9Xpanz/B7PRd+Cx8iQK3BbOkT8FmSD1sJXJLCzuCXd1Yh7/Kdg8YsFk2IaMXgjHU2gfzr2Po+Xmq6SGh/vTsbHgmHdHNRdabQMt90/e+Kvskht5YLAaLhFmKU5gLzuisreVxb9VlCLA/i1yKoSkrOpglfQn25JJtmBTqjTsVpR3BbmpqwoyyAwMGbFZEbdPUsZYNqsf22ct2XC2Nxw/XPQXgQ87Pw1dXXXGkIAQtbYNvFg5t7WMl4ZgY6Y0RIcuF/BG3EeF1Wb3ml3/44ikmxfvis4glQoale5h4S/oMbOZjF/vh51urUVNTI8B+8VKpTCACNM3NzVhUFjggwB5dwiWSU8GEcT1A7mwf99seoepxIwh7Z98bDP9H7d3Y9gA1T5t7/anD4jQ7717HfyKW4j+RinDRI+kt6ROwOTWs6rBYZ33KrfWgcmawkbNo2F8fsFAOwV5Vfk6ATYOc0+Q7c+fY+3+2zHn8uXyHo3JTH9zUPb1Zs1vL8GWspwr2f6KWYWiaAndfgv1d3kbMC90mGCbLLK4qQur84/79+wiouK6A3c+TeTlo7Att3dOOfd9/T9ff9PQdCthRS/EfgwzL8MDou+vARZ64MjKVmb2KsLPfycm8EzLWYmXkPsFwB7BbWlpw8V5Cv5dfYG0587W/33eABvL136hOxT+JfkZJ2op/krZhTv4+7GmK7JPyC1PStmFv4kWQYS6Rx+QvJQmq/RlaW1sRXZUtCub4NYX0W8Eclt3SLrw5kDvVcW5vUP6oHs5pB7EgeTcWpOxRZUnafuwtC8Gp+4m9XjBnWtJ2XEgLFQw/bXuqBbsNDx48QHpVIVissD9LnK2rvwqukuWApvcHznq0ccvzx1icdQBjY1ZibKxRvorzxpK0ffC6cwZ/lPduibOfInwRlhMvGH7a9swINmPrDx8+RGltJWZVKEUpv++nwePZliQH1INg4ChvCsYFtty5DA4ctTIs2gWzUnZgftoefJnho3pLOrOZu/t/ZHRaxQH8cssH+SW3BcPP2pUV3oQp8vzFC1GToa6uDu7lp5XC7+XbesXg78orwsU7ZaM5toNDa4c1ZJlATcCZ+C/ATt2DMXErMSxzpa5wyzLC/xTvwfSbG3Hv3j3BcPtz5Wmv1O4z1BVpaGiAf8W1fisjzOXo9EqMd9wUfXdT3H/+CJ9HLVfh/jx6OYbHuAqwF6QpYH8esxzDdYRbgv1Xjj/cw/eA7LI2DmvksO+VEmcvX+LRk8dobGzEuYpYAfYkobE7T03s7qOD3+9MYy+rOe3Q1oPIDNEqj59SNgiwCbUKduoOqGDHOuPzOGfQFSiDOPbwY/wNl+rYhj+SN2NHzBnBLhnmOkoq2HRoyyBNXGU2ZlcfxaTyrRALRXaSc2s8iG2zKroC23ztRW3DOd73nQa2p61d8o8KoLVgz07daQq2gNsFw7M8eww32eQiu79FrUdQergIztDVJ4MzQmPzD44m6Qe8XVUK13unDauG2Q6srZBb09icrBvyMMehsQepxj5cEW4Em2ZHrCsE2Ol7MSbeE58TagPYn8e59MgsoRlCsCfe3YKptzYivShbsKsNzgiw6dBua28X7hImkmyuvCrAdirpO7AnlPk5AjODFGpq+NCGTIyMdQNtaWFPE+y0nVigBTvOBYSaMiTB1W64CTZX5v0mdx2WhvijsrJSsPusrU119QmweWKs38cFaugZOVUeJcD+QoCtr51tTWNzFau77Y4Ck/aYAQPhN2mtdzE+0dsM7F1GsLVQx7tgCIVwZ9tjlvjii9I1GJ/sDb/I44JZskuG2fE4EqwAACAASURBVBZ09algczT54NFDMbqMKsvA5PLtGFWyRnc72xrYf1buBZeNGAid5DiH7tvz5U8b8EPKegXsWGcMj3PD7LRdWJixD2MTvIyaWkJtAJtwD8vqnitQjP1K1mBshDvOJ4UIZgm21iOigs3RJI1vpv4VVdzF9NJ9GFW6VndftjWw/63cj+b2R3j6or3HwkmunLPIVFTt/vi3XsL98zh67c98P9prMP8/Pf4W+3/1Am2vdLiGV+2oa2vBH+lbVFvaEthCS0uwE1yFxibYQxK7p7kJ9ojC1fjphhfS87MEs+YeEQE2VTcHkLRR7re0oKqqCj53z/Up2N/e2SxmXC+L3Q0py2P3QJW4PViuyl4sj7Mi8fuwOfk09qRdwqrEo1gev0+Ic8I+qJK4D86q7IdzkhVJPgBnM3FJPoBVaYHYm3UVAZkX4ZJyUJHUg3CRknZQXAtnkJvKIbikGST9EFy0knEYLhrZmXcFB/KvY3X2SbhmHlYk6zBcpWQfgasFccs+Arfso0bJOQo3KbmBcDPI2vyzOFocioCiIKzIC7Qs+cewoispOIYVBcfhVhCIcYleJmDPSd+tamyrUEvAE90wPMerS2+JHDgOTffA/Ot+wr4ms2RX6xFRweYAklVX7z9oQW1tLU7fiRSmCM2RUTquqW5NY9OrMiLPGx9dmm2xmE1ncxTl1K4Pz8wA5YfLHph+dT1GX1iMD8/OwIfnZhrl/Ex8aJCPLsyCKhdn4yNLcmkOPtLIx5fnwOnqUsy4tRn/C1mDj6/MVSRoLj6WcnUePjaIsZANC9oYi9loSyTIqVxie2MBPrmxAFMiN2JO9HaMDXXFpzcX4tMQjdxahE+tyGehi6FK2GJ8JiV8iTKVi9uIJfg6yguLk/bgz/hNmnxqY+qpNjyufS/deWJrGCiKAaP0ekiXXvwKqGAneik2tcb8EJpaQi20thuGJLnZ4Ar0FQqX57Q94oRgtbn1vmBXZvURar7EWuq0K+XKBvX19UgtzcXEO1t019qdgU246eP86LKmoI2VEgkSZrmVUHP7I8EONoDdE6gJuhnUFsGWQHOrA9QE++8oDdg6Q62CnbzXCLYmn1oLsva9VagJuDWwM/dhrARbC7L2faIbhkhJ7lpzjyz2gdP15QjLjAdZ5dhQ2tdy4CjA5j8Em3b2k6dPhc1SUVGBRbcPC7D1dPt1BbaAO9tLgdsOqKmhVbAvLrFfU1uBWoAdvMygsdcatbSOUFNDG8F2M2prK1qa2lvV0tTYUktza6ap5RzFb6K9sFiC3ROotUAbtDXdeSOosTN2Y6EEWwuy9r0Emtskg1iBW7r5hmWsxJ9XfVFaWipYJbPaiKNQ19TYfCPtbNbKbm65L+zsQ0U3odg0+pkjtoAtzJJcbyPcmmI2UkPLrVZTC7NDBXsDRkuwdTA/CLSQK3PhRLBDN+PPEA3YOmlqYXZIsGP8MTbMALaOUHOOohHszerMF6121r63qqm1UGvceQLsBAn2foxN8jYOFLuCOskNQ5NXiJnviitQG0tR3HycGb8h7IhglKySWXP7WtXYBJs2ivRn085OupON725v0tUcsRVsaZZ8fGVOhzIJnUEtNPaVlZh+zQB2d6HuRFNLe7oD2DpDrWjsTZgjwdYZahOwEyTYpmmnEmyrUFswP9TgS7wLRhjAXpRlBWxLmlpCTbAl3Lksp2aEe+RtH6FYwtLjhH3d8qBVMGtuX6tg8420sx89VhKiysvLsazgiK4uv+6ALTU3gZIwy60lTS0Hij9aAFsdJHLAaGmQKD+zYFNLTW0K9hZFY/cC1Bwo/h0lwV7R44GiND/kbHIBdow3lqTsxZ8C7G5CrdXUGvNDRBQN7jwBduYeWATbRqhZr4QyPNcLI4uVMDpnwv97da0wQ5i09/CRaUYfOZYvYYrwD2mOcAo7lxZjjuupglDQWKdPWzjGe5gU1V2whebO8RK2rC1Q0wOign1pqfCA6Ak1PR/U2DNDt+DPW+vUwaK93g8OFKX5IbaGgSLBnhsbgLHhlsHurk2thZqTbr9Rwd6ipptKLc2tVU1tA9R07Y1IdMccAfYBjNOaIt2EmiBz5js9ZmSB44mdEacEmw1NjaLcgiUzhDybgC3dfq0PWoWqzy0uwO8FShSSO+6p2AO2gDvLEzRLOtPU0q1HsGdc34DRl5Ya3Xk6aGrpznMKXo6ZYUaw9YZaaOzozVbB7inURrD34a/EjmBbhboL80P1VSe4GsHO1oBtD9Sp7hiS6g4OGAn4t5ddkZ6bpZghrS0W3XwdNDY/kObI48ePUddQD5ojG3PPCa3NxJP+ApvH5V1LuATc9E9LMXPp/RjkKcAeowVbmhrmW43pQdeeOkjkYFH6qLnVuPScrhFsP6GxewNqaqW/rYCtB9QE+9vYVViS2hFsq1BrNbXZQFEFWuOnpsaem7UXiwh2srfRnUe4pffDgk0tzQ+hqamtCXaaO4ZnrBRPR+egbYJJsklGpZtPwqzdqhqbH2rNkab7zWLkGV2YivEFa3UxR+zV2PKG4kj54+B5VqFm8EUBeyPGXDZobHOYtX9rwLYFavqpJdh/hVpeSaCr4Is180MEYQwDRUtg6wU1TQ1LYNsEtRWbWsCt8XiYgr3KCHY3oaaWprYekuyGIafm4lpSuGCSpjJNZmtmCFnuALb0jjx4+BC1dXUoKSnBqpyTYgXUnyoCwAUjfyj3t0umVO7Dxobr8K0Pwi8VO+zaBxeFH3PdGU4XF5vKpcVwurQYU66txaKQ7fj+qgecLi+F0xULErQUTkHLFLm6DKOlBC/D6ODlRrnmjNFSrjtj9HVnfH/TC0sid2J2xFaMueFilJsuGHvT1Sghrhgb4qbILTeMlRLqhnGhKxQJW4FxUsJXYFy4u5D5cTvgkrAfP0b5YlyEO74U4oEvIzzwZaRGolbiSwsyPtoTqsR4YryUWC+Mj/XCHwmb4JkRiLkpu8AZ5Vr5On4VVElYha+lJK7G11KSVuObJB9Fkn3wjZQUH3yT4ovvUtfCNfcoVuadwC/pm/BNqi++SVsj5Nu0Nfg2ba0i6WvxrVYy1uFbg0zIXIcJmWvxffYG0UZzL2wQLJJJskkPniVviNTaJmDzQzVY8+QJGpsawWBNZEEKPMvOwqcxCD71V7DaTtnUcAPnWlNwqiURa+qv2refuivwrDiHOeFbhVuPrj3a1IpshEfoXqyPOIolIf6YeXOTQTZjZohGbm3GLCFbMOuWRkL9MFtKmB9mSwnfitkGWRq5C5tjT2JtzFHMidxmlKjtmKuKP+ZGGSTaH3Oj/TGPEhNglNgdmBe7A/OF7MT8OKNsSj6N7akX4JpwAAvidxklYTcWJOzGQkqiIosSd2NR0h6jJO/FIoMwCLM4Rco+LE5VxCv9GPbmBWNz1jmwBsiSdEWWph/A0gwpB7E0U5FlmQexLPOQUbIOYVnWISynZB82Ss4RLM85AtecQOy+fR37im/CM+8knPOOquKSHwhVCgLhYhDXwmNQpeg4XIuOY8XtE3ArPIapV9biUuxNwWJ9YwOePHliMSgjoe6gsfmBNEfo+G5pbUV1dTXu3LkDn7yTYg3IWVWBmFl1xC5ZUnMKe5ojEdAUhrnV9u+Hx//39m78FLoa3wd5CJkc5IHJV1di3k0/uIftxd/X12FysKci1zwx+ZonfqBc9+ogP97wwo83vBW56Y0fb64ySsgq/CTl1mr8HbYBntEH4RK1Bz+HrlYkzEcsVM/F6n8O9zVKhC9+jvDFL5TINUaJWoNfDPJr1FoYZR1+jVqHFQkH4ZN8DNNit4rFk7iA0m8x640SuwG/S4nbgN8N8kf8RphIwkb8IWQT/kiUsllo6o1ZZ7Ei/Qj+m7RZkeTN+F/yFqOkbMH/hPjhf6lStuLPNI2kb8WfQrbhzwyj/JPpj7UFZ7Gx8CJmZe/BX1nbhUzJ8ocq2f6YIiUnAFMM8nduAP7O3QFup+btwm+x6zH33Hrcvn1bsMikJ2tBmS7B1g4ia+vrUFZWhtM5ocKn2BPXX09tbGlry+3wXG9RF1rr0vvpqpfQ0mOuLOvos7bDppb5H3KgSHNkVoQf/gpb32nRddrSUiy59LQ2tXlS0z/RmzEvbocwQ4RtbUOY3NylJ2vpad148v23cauwNG0//kryU1x71hKabLSpTZKaEt0wIskDc7P3YnHuQYxLWSUGjCLoogm+WBoo0qaWonhCPPDhmZnYG3pGMFhTV2syaKQStvbqYIpotTYN9Ob7Soidd8y0dH+I6I+dHhK9wZbeEg7YBNwXZ+OnYAtga4C21fshgeZWQs3t6BsEe6sCtpWVBCTQtgwUzaHm3//EbDGCrTPUYvBIsNMNYFuD2gbvhwnQHDwaXHomYKeuUiKJ3YCanpARGZ74LGwJfjzugsLCQjFobLJh0ChBtwq2HESySlR1bY2I9pzMDMHwTA8lpdWOdNbeAJtwD8/2EpX8GVVUwN6MMVeWGzW2BmxbvR8SbC3UTD1VwQ5fr6wiQLg1Kwn0FGpqaBXsSHdjUpOVhKbuaGpCTe/Ht3GrFbCT/dTpXJbST7VhctWtp/F+mICt8VOPSPbAvJx9QmN/mbraCLYhmii0tcGdJ4MwUlMLT0g6NbcHPjo1A7tvnRLsVdVUi2pPXQ0aOwWb/ykHkVwHsqm5WUR7ioqKMCt1h5jBQL82k6SkWWDLtrfAVjX39QX4KdhbDBRVsHWEWgU7civ+kmDrDLUKdvxOjJNg6wi1EewDmCLB1vqp7TQ/pLamn1qCvST3EFSwbYSaQFNbfxqyCL+fcBfamlFwamuyaCmTT8Ks3VrU2PwC7RcZiWTRSto3dP1dzgzHqHRPAXR3w+y9CbbQ3Lne+C1irQJ20HKL+dTmuR/a4IvU0ubmh3aSwOibzpglwe4FqAn2v7F+mCfB1hlqAXb8aizLMICtM9QWwbYR6mFpHhie4YmhKe749PgMHI+6LJirrqkWM9E5GaYzF59NYPNLUmvTvUKtXVFZKUanzikHMNwQv++O1u5tsAn39Nv7MC8qAGM1YPfU/FDBvjYfEuwpERuMJkgPBoq0qcUAUc5+CdOC7WHMqTas98KkJnvMDzUAE7McE1Swt3aYJGCv+aGNKI5MUUyRJXmH8GXaapHM1KX5keYBCfYn1xZg+unVgrWKygqhrbUuvs4GjRJuqxpbam1Gd3inSK3NBO+onGR8k7xaSZDqRg5JX4A9t+oovCrPY3you2mIvJMwuS2aWkYUR990weyobVDB1hlqThSgxp6fsBPjogxg6wg1bWkF7IOYkmIAuwcDRWGCmEUUR6asFDa2Cdid2dRpHsKmprb+nElUgXNwLT5M2NZabd1ZpFECLbddgi1df7xjuFZNeWUFiouLsTH5JIZmeKA79Uf6CmwGkH4s9BOzT1RtbSX3oztQE+4xIRqwewFqAXacBmydoRZgJ6wGgy6WwFYHiZrcD5NBosb7YQlquvUE2Ln7oILdBdTU1MPSmRPijg/Pz4L7RX/BWFlFubK2zJMnal6ILdqacHcKttTa0tamh4S2NrV2bn4e/pewCcPzvTG6ZK1NA8m+BJtFeEbkeou0UGsJTd2Fmt4PFezIjXb7qS2ZH+qUrvAl+NcC2D01P4TXw5ChNyHBxwD2NrXmhzaf2jz3wwRsjfdDa35o/dQjU1difu5+Bex0H5HMZNH7YTA/OGAcmeklzK6JgUuRmZWpaOvaGuEJ6Y5tbZPGlmBLW5ujUi7EJLX2hYwwDE9YIUwSWwaSfQ228JYUrFI0tyZDTwwY7ZwkYA52d4MvXUHNeYoEe0HiLsUU0cGm1kLNibcK2Ifwd6oRbD00tZz5IsFemn8YX0qwNcEX4dLTQD0801MkOn18bDqORlwQ2pqMkTWtJ8RWbW2TxpZwa/3anB1cWl4Guv9WJhwE6zwQoq4Gkv0BtuIt8cJntxYZ00/thFpo7FuumB21XZRI6A2oCfbU+K0q2Lppak0+9YREHyzPNIKtJ9QcJAqw8/ZDBdsK1MIEyXAHwWYMYuG5jYKpkrJSMQOdFoKtfmupqeW2S1NEflFqbUYjWZn1XnUV7t69i6zcHPwas1aE27vybfcX2EJz53krcPcAagZfxhjA5kxyFWydSyRIsJm5p4Kt42zyCYm+Kth6Qy3ATvPE/LwDCtgZPmqYXKupCTUV4ohMRhgX4+uji5CWmS6Yqqy6Jxgja7b6rSWncmsz2NKvzeRuJnlzzhm1NkPtF1JvYUScmwi3EyJr0p9gC7jzV+HTW4tF0rp5RFHr0pMeEEsRRYLNYjYq2DpDTXeeADtpN76MNoCtF9QG74cKdto224rZSLvazPuh2tVmfuqREuyCI2INGhlVFBpamiDpHkJT007/5Oh0BIZfFCxRW5MtOZHAVr+1BFpubQabPyDcdLkwu4ruP1ZnvVtaIqJD6xKOiWSXLwTYliOS/Q22gDvXS/iNjWDbXqFJamwV7F6AWoCdsA0LJNg9gVpjfmjrU09I8hUpp39LsG0Ik1sbKAr/tATb4P0QYOcfwFIN2Fqoufb6MIMJ8uHZWXC7uF0wdLfkrmCKbNmSwSchtrTtNtjSJJEDST42mNaam5uLqdFbxOOFRXYs2dsDAWypuRkUUbU0y4/ZmNDEsmMK2Jt6pZgNTY+pFsHWbzb5RBXs7ZZrftjg0pMDRRVsjUtvZLon5mvANodamiAMxPwc6IKcnBzBUMW9yh4NGLWAdwtsqbXlQPLRo0eijKs0SWIykvBthJcoMGipgtRAAVvATZs7bEm3U08F2DH+okRCZ6mntng/RKUmC35qgr0weTe+jFlpKGijH9S0qVWw062ALU0Pbm00P9R5imnuUMEuPILxGb4ioijgTtfY1ZHL4HR4HsISo4QJUlpWKlgiU/YOGHsENn9Mra01SVhg507JXfE4OZVyAyOiXDCiYFUHW3sgga2YJYR7sVFb25D7MTbUTRSzYYkEwmtNzMPkWj+1WnrMAtTU2NMStWB3E2or5ofWTz0x2RfO2YfxtyWwewg17WkJ9rLCo0awDVAL116iYlfvCzkjmCE7ZEhrgpCxnry6rbF5MNra5iYJZ9oU372D/Px8+MWdxH9ilovBpNa/PdDAFnAXrFLgtgFqamiWHWOVJk647Q2oOUHACLan/XU/OgmTT0xeYxlsHaAm2EySW1BwEALsTF/Qpqb5QagZjPm/E9Ox+vJuwUrxnWJlZkwPfNaWbgC7wJZwS5NEeklEklRxMfLy8uASuVssgTbqjo9aingggq2aJRFLlaSmLsLkBJvFbKyB3RNNLWe9CLBT9uDL2I5gq8lMXHqO2llKN7L0JNj/ZPgbbWydoFbA9lLALjqK8QawGS4flumBD8/NwtzTawUjt4tvo7yiXPWC6GGCSMjtBlvCLZOk6Exn4IbuGgZuOCCYEbYJnye4Ggp6+3a6ziMB00OYBMVcEYbUu7M/1i2hR0JOFFB91Gb1qceGrbAKth5QC42dtB0LLYCtB9QMj09MWQPnnCNQwdYRatrSo9LNwKYHJItVdOfij2PuyM7O7hCIYdi8O0lOEmBr2x6DLU0SOtNbW5UKUtLeTsvKwO+3fDEkeQU4mByoGlveAFwCgnBbg5qmB8uOUWNzXqLWFNELas5ymWYBbJug7sT80OZ7mICtM9QdwM7yxYgsL3x8bT6+O7IUSWnJil19946wq8mMNhDTnbC5Naj5eY/A5g6kvc3ADTMAGd+X9nZBQQFiM5Lww01vjEhbiR/Kt8Or7hLcas9ifOlGjC5Zr7ssqD4mSjv8XrHLrn075ftgaJQzPg9ZrMitxfhcyBJ8HroE48M9RKmEqTF+4u8hoUswJGypUcKXYoiUiGUYopXIZRgqZDmGRlkSZwyNdsbM5ABRqembOG8Mi3bGsGgXDItRZHiMC4bHSnHF8Dgpbhgeb5QRCW5QZAVGJJrK96nr4JobiGmZOzAiyV2RZHeMEOIB5lOrkuqBkVLSVmKklPSVGKmKpzL5hBNQ0j0xOmMVFhcehkvRMXyXuwGfhyzBV4cWIjwxGmTitsauJjOyopNeUOsCtoRba29zkSZO5+EFcDAZmRqH+RHbxWDiyP1YHLgfBefaM1hac0p32dEUhhOtCaIoj737X1QWiGmJ24UdTVua2pnzEOVcxA0pp7AqKVD8/W+Mn8ifZg61kLit+DduK6ZS4qVsE75puvEo3LcqSduFhqaWnpbsL2Rt5mlszb4g6oBMTwmAlBmpAZiRukORtB2YoZGZ6TuhSsYuzDTIrMxdUCVrN2Zl7YZLzlHsvH1NlEiYnb0bs7P3YHaOlL2Yk2OQ3L2YIyVvH+ZIyd+PuVopOIC5GllYeAjbS4KxpyIEc+MCMOWYJ0LiIgQLtKvFVK+mJhFd1NOuJovy1WONLXfEu03a2/RFMizKxSULi4vEQCE8NVYMKPeWhiCwOQ6edRfhXnted9nXHIWzD5KxqeG63fteUXseLhWnMCdpJ2bGbMfMWKMsid+DLSlnsTb5BGbF+RslPgCzDDI7PgCzE6TswJxEjSTtFPvlvucmayRll6j3wepMm7LOISDnsliAaV7qbghJ2435aXsUSd+D+VIy9mK+QRZk7MOCTI1k7cMCIfuxIFuRhdn74Zl3QhSz2VR4EQtzDwhZlHsQquQdxCJVDmFxvkYKDmOxQZYUHoEqRUewxCDLiwKxtzwEm9POYPYJH1yPDRUMFBQVCibIBhmRdnVPXXuSQe1WV7B5gtK/zcFkQ0ODqN5TcFuBOzgpHM7hu7A8/zC+L9+Gb0q36C7Lak6LMmp/V+7r8b7HF66DU/QKjApzNogLJkZ6g3DPjvXHF+EuikS44gspkW74QkqUG74wiFOUG5yiVigSvULsl/t2iqG4mwhB5qpi3yesgVOsB5ziPDBaK/ErMVpKgidGG2RMoidUSfLCGHNJ9sKYZG/8mr4ZnvknMCd7L8akeGNMqjfGpq4yStoqjJWSvhpjpWSsxliDjMtYjXEZPopk+mCclCxfTMjdgHlxAZh5fDUuR98QUOcXFSqVnOrrRY61DJmTGT1NEAm3bmBzh9LeZkaWzCehp4RVW3m30g0YmhyDBbe2C7vOqZO8Ejmg6+7WXq+IteMw0MQBnRwocvDIYjY0S8SAsRfqfkxP9seitL0YH+dldOeZB156MJt8YupauOQdxb9ZAXYVs6FLzzxMLvM/OFCkTf33MU8TTU0GxGJIhjwQmbXXG1CTRV3BNodbekqYLMUL413LnJKI5Fj8EOyp+LmLmTBlOWnKGmydfa432DyWFm6uCKuC3QtQ0/thEexu+Km1HhD1vcb78V2aEWw1Q8+wPIal3A+CrBVzqEXwhX5qej+C54uBYkhshOjrvMICpfRvXZ3wmvWGB0Rqae1Wd7Ctwc2QKUul5RcViAuOSUvAb1dX4T/RyzDy9mpdVkwghL0BtoA731toblY/Jdj/xm7plWI2Ktjp+zA+XqOxtWBr3Hr25FNbBFtm6HGrSWjSAm1JU8uIIoMvrLL1/eGliEiIUaAuyBd9zr6Xbr3e8IBogZbvewVsLdy8EGYCcnKChJtmCTV3Snoapl5bh09DFwutqEdx+d4Cm3CPLFwtooGs+UEPiMj/6IW6H/SCLJZgWwFam/sh4O5G6inBds0PFKZIZ1l6tkDNiQK8EVhj74+jK5CUmiz6Nl8DNfueDPQV1OSv18CWcNMNaA631ubOysrC8hv++OTGQiUr0M66gASvNzW23P93RZuxKG2fAnYvQM0Q+QwVbO9eqfvxXdo6A9g7jDU/uqmpaVMTakaW/9+xqZh3eh3YlxxH5RvMDyoyLdRkobdsaqmp5bZXwbYGt7S55YCS4fdN4Ucx7OpicfcrKa/22d29qbEJ9+Sy7fCoOCvg6ypLT+Z+KFvbs/QE2Bn7MT5BA3YPzQ+ZfkoNLcGemq0B20bzg6YHJwmIKV3hS/HJ4WnwvbxHpFAQ6gKNTd1fUJO7XgfbEty0twg3i8oX3i5CXn6+aJhjMVfw9RUXYXeP4mplduSP9AXYjJ4urjgmPBYMwUtR5ydGatcl53vboRYaOzUAiyXYGqB7Yn4QbDlQ/C59HVwLAqGC3Q2omaFHsFm6YvShuTgQclaBOj9P9CX7lH3LPpbmR19q6j7T2PJAWlcgR8bMvaX7h0GcYs7Ayc8TtllkchymXPExM01s1959BfbS6pMYkb9KmAoEWy+oFbB3GMBe1St1PyZpwbYBaqaaSi1NL8v/nZqB3466ISwhSvRZTl4uGFFkX0qXnvR+9AfUfaaxrcEtgzgMsXLGe15BvmgoZn9539iLoZcXChvuC83qrF1p8b4Em+cysmC1cFuqYPdkjqJhoMiw+eKMA/gq0Qi2Pd4PrfkhtTXdeSrYOTuNHhArLj1CTS1N04MVUD89PB3u57cLe5oOAPYZ+459yIAc+1RC3VvBF8lTZ9s+MUW0J6DV3AzisCGYW1JVVSUqa3LgwQYj3GdigvHDRXfRoFyhdbQYWHauvfsabAF3oQFuHaDmpFvmgCzRgK0n1CrYXNtFgm0BaqGl091FhaYhia748OxMfHtoEU5GXBZ9wz6i54MVeNl37EP2Jfu0t4MvWp6sve9zsHkiEm6ZW8KJCqwLWFNTI/yewh2Ynydst7T0dLheC8DQSwtFwUKuFKydlWOuwfsDbJ4DgzifxznbN0fRLKo4M22nCrbeUAuwM9YrixYRbDOoBdCGcr5cLoMpvJ8cmoqlZzchJTVF9EluXq6IJDMuwT5j37EPtbkffeX9GFBgm8PNDC+mL3IULQeVYua7we6m9j4dcxW/XPIUs1zY4OZAy7/7C2wen35ugmhpsGhTPjVNkTgXCLAzD+CrpFW9UvdjkgQ71xxspei6qHoa6ywWi518ZBmO3bqgamna0+wbOUhkn7Hv2IdUVP1pfmgh7xeNLU9Aam6tr5uDStpqJqaJQXtnZGTA98Z+jDm/RMwwZ0FMBnW090WRBQAACbVJREFUGrw/wbYGd3egtgh2N4IvWu+HteCLALvoOKYawFZWv/UUKwnw9x9dnoNRB2fD83wA0tLSVC1NM1GaHuwj9pXW8zFQoCZf/Qq2FnDCLZOnmNIoTRMGc1i2WHpNqL1DEiIwP2gzhl5aICYNc+YL4ab0N9iEm2aJ1NxWoTYzPwi0FOZVLxEae7VxTqI53JrcDzlItAVqRgknZRpMkdwdYuVbamh+zjof/zk6E7NP+uJGbJiqpdn27AP2hTQ92EfSnu4vz4fkx9J2QIDNE5PaW9rdfLzRF0r3EUfc1BQFhYXIzs0RGoRRrtPRV/HPJV98dnm+sG8J+PzqQPg0BHV7zqM0ZbraMkBDPzbdfZ19d2SRD4bEuyrLzXU28VYDNMHmDSHAzjqIr5KtgN0DqKmdJ2Wug/vtE5iet0cATTv6o8Dp+F+gB06EXRIeDwbN2NYMuLDt2QfsC/YJ+2Yg2dMDGmwt3NI0oduII22t9qZ9RxeTFvCD4efxx3kvAfiUZD943juP3yp2qiaKpapUnUHZ2f/ZCjb3IWzuBNdup54S7KXWwLYT6iGp7iDUHJ/8kL1RBGj+iFiLjwOn4Zejrth/87QJ0Hn5ecKW1mpp9gX7hCkS7KOBZHqYwz1gNLb2xKT2pmlCzSC1t7S9WXi+6PZtYZ7kGFyDmZmZIODLL2/FnBtb8HW0p6gAyxUXpJkiYOvmSmfmkHcHbBXuRAPc2oQmw0BRmh9a7wendVkEu5tQC5hT3TEsfaUAmkGWzxNcMO6aC6ad9cGik+sE0Gw7mnh04dHjUXS7SFmCrqpKjHe0WnoguPK0rFh7PyDB5slKuLXam3YdJwvTc8IoFx+RhSz1kJer+r5pogTFhGDZ5a344txCfHJzoXBpSTehMtD0tVhb0BxiS393F2wBN80Swi3BtmB+qGAnuIr5ikuzD+HrZB+jjW0j1ENSVoAyNG2FAnT6SnH9n0UtFctgDDsyC4tObcCliOtCQ0ug+QQsLCoUbcq2ZRuzrdnmg0VLayEfsGBLuCXgtL3pUuIonKNxBgQ4kKHbiZEv2t/mgF+PD4Nn8C58d9YFnwbNFwNNBnpGlazReFMUyG01V+wBm3DT/ufgjr5uqaWlTa2FmiFrobG1YHcBNctbCJhT3ZSVtwhzuofw+398fQE+OjkDXx9ehBXnt+F6TKgJ0Gwz2tFsQ7Yl25RtKz0e5m489sdgeA1osGUDSripvc3NE04MZWfQFpSA0z7Myc0Rj1dq8KSUZOwNPY2ZF9cKV+Gn1xeITqe7UAu5VptbA91esIXmLuQqtYRb8YCoQJstZDQrczdUjW0B6s9ZKFLMeHHDsFTDMnJi5S2aGq745OYi/N/pGXAKnIdpJ1Zh1/XjSEpOUoFm29DTQWXANpN2NNvS3OwY6La0ZMR8OyjAlictAaf25gCG7iZGvNgZtL9Zz0RqcFajYudl5WQLLwofuYQ8ND4SfjeO4J8LPirkrDM4LMtTWd6vVHEbGv3jRo1O2HsCtjRLCLc1qKmxVbBTfPB5opsiAmZXsbjncMKc6iE8GtTUPH8WqVdgno8pxz2x6coB3IwJM8KckyPaQtjQRUWqhmabSaDZlmxTtu1ACrbI/u/OdlCBzQsj3J0BLjW4tMHpf6UGF14Uw0CTgFNuxUVgR8hxLLi4ET+dd8e4YGc4hbtiXLI3vs5fhwmlWzCxYiu+K9+KSRXbxHZK5V5saLgGj9oL4v/5HYtS5ocJVuSb4k1iYc+xSV4wijfGJiuyOPsgVuYfxy8ZG8X3vkpfjS8NMi5tFcbEr8QXoS4YfnkRvji1AJMDl2PuyTXYfvWIgJmDQV4fb2YxuM7NEW3AtuC4hG3Dp1xXQLOdB+tr0IEtG7orwGkncgBE/ytzGugm5ECTGssS5PFJCTgbcRV+1w4Lz8rUy2vxW/Bq/BTug98SNuDP7O345/ZuLKwMxNamEKxrDMbM6sOYWX1EkarDmKmVe4cwsxOZXn4QU3L88WfGVkUyt+NPIdvgnn8MqwtPY3rmTvyetAm/RK3BDze88N1FN/x42g1/HV+Jxac2YuPFfTh16xLiEuMFyCYw5+SIa6W5wWtnG7At2CZsGz7lrGnowQy05GPQgi0vwBrgdBHS78qRPQML0kyhxqLmYocT8qzcbDHoFAEJg7lCjUdYzkddw44bx7DiSgBmXVqPXy944serK/FPyAb8HrUOX8Z4inyObzLXYkLuekws3ITvbm/GpLt+mFS6Fd+XbVOkfDu+l8LPSrdhUokfJuRvxPh4b4yL9MCYsBVwuuGMUVeW4IfLHvj9vCe+O7kcPx1zxbSTq+Fyxg/+QUdxNixInBvTC1SQc3KEZqbZxWviDSy1M00zXjvbgG3BNmHbWDI53gWgJReDHmx5IeaAy0EmXVV0WVFDSS3OPBR2uIRc2uPU5EKbM+qWna0OPgkQQUpIThLmy6mwK9h58wS8ru7GwoubMfWCL/646IXJ51dgwnkXfH3JGeODXDAuaDlGX10Gp+DlGH3NWbwfd9UZ46+64OvLLphw0RU/nHPDLyfc8M9xLyw4tR4rz/sjIOgIToRcFGYFnyQSYgmyMDF4jjnZ4nw5luA1aGHmNWq1s3TbMS7AttHa0O8S0JKHdwZseUFawDmi1w40pRZnRhrtS3a81OQM+tBDwFXQ8gsKlOCPNFu4tQA7QaNQwxM+JgwlJCUiIi4aIbHhCI4OQVDUTVw2CN/zM/4fv8Pv8jf8rbSL5T61EBNg4eUxbAkyc6F5rjxnnrvUzLwmXhuv0ZJ21no53kWgJQfvHNjywrhlxzHsSyHg1FT0y/IxrIWcmpyPag6oaIcSEgk6tSC1IU0XMTeTuSp5ucjMzkImQaM5Q82pAV9qe5u3Bo8F4c3MyRL75qCPf3PgSz+z1MhakHmuPGeeO6/BHGZeq1Y7D+QQuLbf9Hj/ToMtG8iSFtdCzqAPH9UMStAOlaCzfAAf6fQi0NdL2Gm+cDBG4KkxCVxhYaHQ8gL8vFwlUMRccoM3Rpo43PIzCm8ICn/DJwT3wX1xn9w3j8Fj8Zg8Ns+B58JzkiDzXHnOPHdeA29YLczvi3aW/azdvhdgay/YGuT03dL+pE0uQeejnFqQSVh8vBMoPuqpJQkZNSaBo4YnfPQ8SPgJJYUaVivycwktf8Pfch/cF/fJffMYPBaPyWPzHKRGliDzXHnOPHepmd9nmLX9/N6Brb14LeR8TEubnJAQFmm2ECCaLnSPEXZqSQ5GqTEJHDU84WOQiCDKG4BgUqhlKfJvCSy/x9/wt9wH98V9ct88Bo/FY/LYPAepkS2BLM0MXpPjBfx/pvjmcYBQos8AAAAASUVORK5CYII=;opacity=30;" vertex="1" parent="1">
          <mxGeometry x="543.27" y="370.99999999999994" width="52.75" height="55.07" as="geometry" />
        </mxCell>
        <mxCell id="yJE9GD3ZsEBa4JYX66G7-22" value="" style="endArrow=none;html=1;exitX=-0.002;exitY=0.078;exitDx=0;exitDy=0;exitPerimeter=0;entryX=0.997;entryY=0.076;entryDx=0;entryDy=0;entryPerimeter=0;fillColor=#f5f5f5;strokeColor=#666666;gradientColor=#b3b3b3;opacity=50;" edge="1" parent="1" source="yJE9GD3ZsEBa4JYX66G7-20" target="yJE9GD3ZsEBa4JYX66G7-20">
          <mxGeometry width="50" height="50" relative="1" as="geometry">
            <mxPoint x="808.6399999999999" y="410" as="sourcePoint" />
            <mxPoint x="649.64" y="267" as="targetPoint" />
          </mxGeometry>
        </mxCell>
        <mxCell id="yJE9GD3ZsEBa4JYX66G7-23" value="" style="endArrow=none;html=1;exitX=-0.002;exitY=0.078;exitDx=0;exitDy=0;exitPerimeter=0;entryX=0.967;entryY=0.966;entryDx=0;entryDy=0;entryPerimeter=0;fillColor=#f5f5f5;strokeColor=#666666;opacity=50;gradientColor=#b3b3b3;" edge="1" parent="1" target="yJE9GD3ZsEBa4JYX66G7-20">
          <mxGeometry width="50" height="50" relative="1" as="geometry">
            <mxPoint x="494.80000000000007" y="523.58" as="sourcePoint" />
            <mxPoint x="639.64" y="523" as="targetPoint" />
          </mxGeometry>
        </mxCell>
        <mxCell id="yJE9GD3ZsEBa4JYX66G7-26" value="" style="shape=image;verticalLabelPosition=bottom;verticalAlign=top;imageAspect=0;aspect=fixed;image=data:image/png,iVBORw0KGgoAAAANSUhEUgAAAMAAAADACAYAAABS3GwHAABAgUlEQVR42u1dB1gUVxclJmLvGn+NRqPEhqKCCggotth7TIy9InZAEaVXC4JYwd67xt4VEEE6WBAbINgQexKNRin3f/fNzO7ssiC7zMKCM993vhVkp7x3znv33nffHS0t8RAP8RAP8RAP8RAP8RAP8RAP8RAP8RCPQh0A32iBa5kRcPBbhHmw63fKgPsenoOeSzzEQ5NJjqS1iN1QVkJawa/FXAevwQlEFId4FNuIXhCSGxCymj5cUsM8ybWBefISnS4p7m3MHnh26nLfs0vXZK9uXZI8fkHQf5Pf0f8jf4N/i9/B7+I5CioOURTioZZRF0fcvP7klxvLK5neX9Kkd8rynhOfbB7/x0N/5y5JnlvMkj1PmyV7hJPP212SPZ+Qz7cEHwk+E2QT5BAAixz2d5/Zv3nLfuc2e47TeE48N14Dr4XXxGvndV8ys4R4iEdBD1dCGHNgySNPqtRt5Yem+bUclOY3bEiqn+vghyv3D05ddXNw2srnIx+uy7Z6ugemP9kO5GfFSPUrOBR8H8+N18Br4TXptck90HtJWzV0YOqaFniP8vdNRUyeyVUUg3jkRXokiTxB8GeL9G0tpjzeOmbyky3rpjzeEk7+/YZ8gjysnu6GFS/P5XhmHM+e/GhLFoPNsni4ObtAkP8exZYsPPeKF+dy8FqK7oG9t3DmXreOwXtX9EyKnlU8vsJDYjfzjoHpGyr2fehn0j91hfOA1BWB/dN8X/ZP9QUFyOqf5pNJPx/4ZI9OC8hZnHEyx+HpIeiX4qMW4LnxGngtvCYB/x5y3yO5d/oM5FnwmfDZvvT84vEVOLPUpuc5iuhodk1abGya7OlhluQZRWzu/3j2OYcssySPTNMkj2zT+x45Zvc9gI/BKX7glP4nWD/eDfL/JxTw3HgNvJb8/+E94b2Rf2ey9yp////hs+Ez4rPKONcK2kQ8SqGZc1ButENH0izF04ogRAHp0SnNyovwmiaAPAXBPkMuMeAzk2fHNuC3yUHRPCrlZg4Z5boke3QnJNhG8DyvUV5ZcmqaAHIJAp8piZ0dZJ8Z22Abtgl/BhDNo1IQwuSHLy2I/ev+/OiYEWmrg+QIkKMq6UuSABSKIUkmFAvYNthGFjxfgTGNxBmhxMXuuR8Nk1yrmqV4TJ/+ZMd1t+fH4Ne01dLRHs2DApg3pU0AfDOJCCGLmxWwbbCNsK1Mkzxn9ExZWo0/I4hCKAnOLXvgIhESn3RsInbujCfbsXNzSCczI5/A5CyJApAXw/C0VZluGcdysK3YQSIR25C/4CY6yxpq50s6hXya3HcfZZbsFcs3c0in0s4d/mCVWshZ0gWAwLZxeXaUtpXsSrVXrGmK5x/8Nhb9Aw0c9Wk+TYrnebkUgywc8ac/2gauz46CKID8BYBthG1FzSO27STtSdoW21icDTTg4BPf5K5L/S4pnutIJ33ikT+TxsLZzhUFoJwAZP6PiR5x7foJ2xrbXFFfiEcRj/qm9zzHkk5JlSV+bhtfFEAhBCB1mPlCSMW2F2eDorb12aPzA89GpskeB/gx/PxCmaIACicAmRAqby0B+wD7QlEfiYeaTB6ze+4jSeOn52XuiAJQnwDyMIvSsU9Ek0hNJg83qmBcmjR2wJfMHVEARSAABWaRabLXem7tQCYyJx4CmDx33I1JI99QZtQXBaBeASicDZI8rxsnuHYWTSIBTR7T++4WpHHfSYifrPxCligANQpANtcIBfHOJNF5mmgSFZb84FrGLMXTV9VRXxRA0Qkg12xA+snkjtsKrYMjvhVFoAL5jRNda5Lp9JhcpqbKHSMKoIgEwIggSyKCRJfjBsHzaosiKMDhCsEM+W+56PBSGbJobn4hO1cUQBEKgB8uJSIwveMW1yFsQXN+H4uHXKSHa5hud9wNiNnzoDD2viiA4heAJErE9CExh1xTzcIXdJKIQIwQ5Q5z2jzZ3aN7ypIXLPk/F8bkEQVQ/AKQmkS03AuY3/V8MetWQG8xTMojP5djvujpwUG26fvfEwEITn5RAMUsAFYE2Lc2D3e/t0rYNowLcny9IpCO/N+MSFs11OP58Y/OGX/CwLQVmX1TlkOfZGFh82QvLM04BePS1gt+bsQfqf7glXEC7J8eVMv5EXhuvAZeSx3nx7bBNsK2Usf5B6T5ZmIfuzw6/HFgnNdvtO+/1pmAtfm/sXt6YCCSf89fEbD9TVim07PDQGYDwbH+ZRDsfxsBy0gHq+P8Xs9OwN434bDl1WW1nB+B58Zr4LXUcX5sG2wjbCt1nN8x/TBsfx2aiX3tnHbw46z4jcORA1+dY8yR3+bJnm426XvfOZJRYfvb0MyNr4Nh/tN9YP1kj+BY/eIC7HoTBu7Pjqnl/C7pR2DH61AIIORRx/kReG68Bl5LHefHtsE2wrZSx/mxbze+CiID3ZVM7PPZSdveT41a0/urEgEbC/7G7LarfreUJRkEMDjNL9P52Z9g93Q/9EpeCuZJiwXHrMc7wOPZcfg9da1azj+MtZ/nE/NBHedH4LnxGngtdZwf2wbbCNtKHefHvsU+Rj9mEDF18XdmN1yeG160MUJOlPp1AskiF43zeyZz0Z7+KT7Evj1EOngfdMNGUYODJzrBxewEE3SjIt5H+7pfsg91jE3vuYNxvOMDg5OzWpTqxTIu1Gl6c2EN0yTPGH6oExtDFMBXKAA2OoQiMIpxiG9/cGKd0plAJy2n8Y3pfY8/5fN6RAF8xQK4T0s4ZprcdgWjiIXHCUe+leNMKYj1s+QnD+vNKzsoWeEVBfB1C4BdMc42SXABw5D5q5Arctwp+U4veciJMnU3eQ0jCuArnwGk6dTQ+boTdAyynlEqnGKO/J1vOXUkpP9Lktwm1zCiAEQBsKZQFuMP2P9tcHKGaYkWAefIGJ6ZXZU4OnH55fOLAhAFwN9PYHrHDQzDFtzQXTGipmS1uOTl+FD7jdj97gFf2swiCkAUgLwIOt90ho7BNtuoPyDlU8k42JcvfGOS6PJbXna/KABRAF/YXglGsfagf3rGBORSgd6WqUGmzzeGkQsakId4JBn982kYUQCiABSaQnfRFLJ92mbrqCYlwx+QTlNlyEPsLug+XlEAogAUgnAHTaEOl6wOSdcHNNgU4qI+JrfdfueVyfjiji5RAKIA8txRRj6NYogpdHL6RI2eBaSmj31dQvp7BTF9RAGIAihIlQmMCnW8PD+59bqJDTVXBEz5izIm99xWKFvFQRSAKIAvmEJZxtccQf/C3PXIMa7Uiuat9iY6GZqleL7/UtRHFIAoAGUEQN/Uec8dDCPs/m17YFI3GhXaYFFWkxzfb1jH97gypo8oAFEAyhTcog7xBavzhGvfSdYHNMT2L9P5lvNwZRxfUQCiAJQusUI+DSMWQrvDFuORc8W/QsykrH7TYMWICmb33cNVGf1FAYgCUGYWwIzRjpfmxtaeZFKFmQWKMW2atcPKmCa6TlJ19BcFIApAyde6gmEkzgLT5iL3dF1HaBfr6K97cEZlcnPxeWV6apIAFmecAIuHW6F3srcoAB663veEASm+MPXhFvB8dlxzZwA2IoSzAPEFbv24sH8NOgsUR1SIG/2NEwo3+heVAKwIeaLfp0B2djaEv0sio91qUQAsZj3eCY/+ewX/ZX2GoH9uwWzys6YKQDILEF9Ab7+FFXKwyCNCruzob+5qXn7qo60RFk+2gcWT7Znk36AKrJ7sAf+XgbDqxQWY/ng7qHqe/LD5VTC8y/xIBZCZnQWX/k4Q9PzYsRteBYHf83NquX8EnhuvgdcS6pwzSHsnfcyg7YL4K/Nf2PAySC33j32LfYx9jX2u6nmQa5OSNsCI4MXxzQc1p77AiKKcBVyZuH8Zh5QDw92eHwOKjGM5aD+qgmUZp+HAm0jY8/oqLcuh6nnyw6E3URIBIHC0wwJQQp3fJ+MMHHobBbteh6nl/hF4brwGXkuI87kRnPgrTtImiL8zP8BB0hfquH/sW+xj7Gvsc1XPgy/zxs9517bApKNemC1axrXIVoelcf/vBif7nRqatgoIMoc8WAmqYixbkg8LM/2auhoKc668gNMuZwJxwJ/HpAUIcv6JDzfC8udnaNEqddw/As+N18BrCXE+rP/z9NObXG2CbaWO+8e+xT7GvsY+L8y5kHMDE72h+xm7QMJF7SJbF+Bsf6OYRSbci6nzez2pJjnBfi/Ow+vP7ySd/THrExmVjn2VPkDX+15kVoyELGIOcu2BbYNtpNFOsNzqcMeQeZ91t47tXXQRIcbW+tbkttvawkR+ikMAOPocJqbQp6xMSaff/ZAOA1NWfHUCmEZs6Vef/5G0A7YJtg22UUkQgCRHKNYB2h2ZvoOmS6vbD2Bzfsp0PD+joel994clTQBoN45L2wDX/30o6Xh0iHe+CqWhwK9FAN2TlkCMnDl4/d802jYavRCmKCR62xUMLs592mLx0GZqjwixAvi2800nC8m7Ydkl6pIiAFzswWv9m/WfpPPfkKkfS45/DQLoQoTulH4YPmdLZ8H3pC2w9LrGrwTnFRINtwO9vZNskZtqS5VmQ5+IsqZ33c+qmvagCQL4JXkZDYPyR8ATb+PoyFjaBYCFdW99eCzz7BdJW/QibVLSBCDZNXbDCdqfnBVMuFmBRoTUkR7Bjf6GofMMiAPytxDOb3GmQuCIzw+L4r+xhn1pF8D2V1dkHF987j9S15WMXKB8nOEOQdbvWvj/0RU5qhYziF1o+M70putCZfP9NTUXaP+bCOoD8O1gHAlLqwDwDTDPP/0l4/9gG5SYZLi8Z4Fso6hF0HavxRLkqPCLYq6M+dNghHEFYv4EC+X8FrcARjxYAykfn8ssjq14fpbayaVNAD2IeXf2r+syo3/yxwz4lZcSUoIFkNU5wRn0T8yMrGmoU5Wa6q4CmkGc+dPjslNHoc2f4hRAF4Ilz07KhEWffHoNv6WuVUkAzoScaEaNSF0Dkx5ugrmPd4F3xmm6+nn6r2sQ9E8iRLxLgpv/PoSkj8/oItST/17DvQ/pEE9mn6vv7lHfBP2Rra8u0zUKXKzC6Aza7gue7KfXUEUA2LYocGnY8zMsfnaCtkFJFwBnBhkEWr/T9xvbXXAzyCCWnuy7fjcX27Cjf44Q0R9NSIful+IDMe8fyDiFe1+HQ9ekL88CGDrtkbSUCGYNrHx+joYW7354Ssn94vPfMsJSFRitSidCuf3hCXVeQ9/dBU8iDMzeRKe9ILNVf/K30e+TZc4bRX6WJ2GJFQBTXToHE+SMd1m6I1dZzgpn/uBy84D7y08Ibf5own4AHGVxVZgjBy4Q5ZcRiQtnOBrvI0LBRLLPAhBdWXwgwoglggt4GUiebTsVYl73u+r5eRkx4rPOIN8pcRtivmQG3XCCLiesA7lokCBmEGf+DD/l2mRgiu+j0igAHMnP/XVDxj6OeHdf5l6Q9CgUTBR7+N9L+CfzQ5GTXhHQkcV1jEQyQ6x5cREmPNwo48ij6fTs01vJ3+MzniG+gKKFv5IuAKwk1+3iwnRj99FtBDOD2JN8Nzre79eBqStAaPtfU3aE4WYQPlHQRnZIPwR9k5fT14deIzY6f/FMU/GSzF5B/9wG6ye7qRB2vw6TETaaU5Mfbi6ZWyK/4AfgoljPq07Qa/OcKcjZwucGYXadqznOANoT7vsvZQWQLXTDaMqWyHVkBOWTCZPD+GsFJQ0vPv0N7zNlRbvmxYWSuye4AOHQ3vGET4dsA2iGKHK3UBmibOIbQflJKRsusQLIKq0CwP/DnVEllfBfwkPybEO/8Pwldga450652TdxCQw55RROOFuZcpcZwAtl/39nfnCGDpk2H5VmAWBUZfPLYGpPl1YB4Iy26WUQfdZSOgNkDSDnHX7JI72904C2NBpUGD+A/XLZPlece095vCUbBSBk+FMTBIB2MsbbMf7PXxUurcBnxGd1J23RUy5yVNIFgNxEjo6MWJbdYdWEkcjdwvgBXPk57f43Fs8nAgBy8mx1NExxrgQffxuXy07+GvCe+DbH3saWjpVgnhmEHB0VtwI677D0Qu6yHP5Gtfi/ObWfyg+67b2FFUBWaRAA7obCKhFp/7386ogvjwcfn8Ocx7toWLSUCCBr7K01YHZgNr5ToDzlsErrAcyXvqtt0rzKoPu+oaVFAJiigLY+Vj/42snP4W3me+obTEzbWCoEMOF+AHQ9ahNbVbdBTVpHVDUB0NG/bGvfkQ2HpPg9KvkC2E7LiuDq6SdeTowIaSJg1Ltk8H1+lrZViXSCccGScHRS6ibocW5h+k+TujVHDmtZGJRV1QHWNj41p/PIh+vezXm6G0anBWRjBEFoYD66V8YJSUUFdVxjecZp4vy9Ecn+BWAYGBf+1NEHXGUL7Gvsc3VcAzk658kuGBDs+r6V25C+yGFVHOFvzF0nlCef5UZEe/9u/XQP+L48B0syTuY4ph8GoYFZiXvfhMPO16G0gYQ8N6YPbyTT+/PPf4kELyAyPr2lNZOw7YTsC+xb7GPsa+xzdXAJOYpcnRK9Gsw3z5iGHDa2HlFBWUeYE0D5oXFLrKc/2Q4eGcdzMNV3NnGYhMbCpwdg86vLEEAa3frJHkHPvfrFhVId21cXMCEQ90YI2RfYt9jH2NfY5+rg0qInB8Dj+fGc8fErwWyLBWaGlldJADqz+5bDrLrO8Q6+WPxqyqPN2XktoGiqD+BCRjBMSxYJrRpw9xgStST5ALgQhmtW/eMXQ6tt4zcjh1kuKycALQPqOFTqfMNpHwpg8qMtWSVFABjSm0dGm5ci+QsNTBDE1OkuhSwbU8QCyBp4axm03Tv5FHKY5bISAhhBc4DwS5VNEl0v0hng4aYSMwNg6cDHpTinp+jXCl7A6NSAkiEAwlG0VgbdXg7tDllcJRyuSrk8Qpl9wmwGqFaTGtVM7rhF0xkgrWQIYFSqP632JhJXWNz895HMqrHGC+CeD7Q9PC1Bq27l7ymXlQqFMgIo13BWr/qmd91vlxQBYG5L5LvkryKnpzhyiIL/SSxU7aQiEwCxVgYnrwD9YzOT6wzS10EuKyOAb9i4abkmHgN+Nr3r9rAkCAC3BO55HSaSVc3AkLKqfVSUAhiS4gf6Z2Y9/WFCx3bIZWUcYU4A5VusGd3G9J77c00XAFY2wJAdf1+vCPUANwipWlG7SAXwYCUYnJvzqtHMHsbI5cYTzMsXWABcCLSF/ygDctK3mi4AzO/BFF+RoEWDVOIUj1KhlmpRCQC5OjR1JXQ4P/fvxlY9zZHLKglAb+dEQ7Mkz/d4Mk0VAObzx8mVNRGhfmB5FmX9gSIXwCXrD00W9u6ptADYP67YeuvEzmZJHh81VQBdk7zoPt4sgZzez5mf4dHfzyHxVSrFk39eFEvJE8FKp3z+D9L+yYBbb9Lg7ttHkPHvG8jKEqitsjNpzpAyZeWLVADEaukQaP1fY9t+fZDLWNWwwAJowCwdV9TbNcGMzACfNVUAWDHtqUAJbm8//gP+14/B4BMO0PnATDA+MAOGnXKGnbcvUCKVNPKnv38Fi6/vg8GBrmBy2hq6nrWFMSHecP5xDGQKJGosK/m7ElX0iloAHQNtMpvY9+6PXK5vMbBiQQVQRiKAbRPMTJM8PmmiAMzJ3135544wIT5CCJvL66DNromgt3uSFHsmQbu9U8AubGOJG/l/C/YC/RMzWMyUwPi0FWy4e1qwa516HQdd7mnqDGD1WU4ABdoXUIY1gSrpbhhnSmaAD5omAIz6YI6KUCVLYjPuguE+y1zk59B+31S49iKpxAjg5MMIheTXP8mg+3k7ePavMEGDt5/egeXdTWB2113zZoBLNh8b2fbph1xmTaCCCYD940ot1v9hTE6qcU4wvuAiSq7WpapA/2Fl3CFomwf59fZOplgee6DEjP620ZvyJD+i4+k5cCRNuDWT8+lx0DXGGczuuWuWE3zR6kND2+6/IJfrDzSoqLQAmq8Y2YGYQG80TQCYpy7Uau/nrM/gFrE9X/Ij5ocGwMcS4Au8/e8dTA9fnSf59U/NAoNTs2HtnROCXRN32FnGrgOjCLt8RVDUAjA4P/evHyy7d1daAJwJ1Mx9QFvyQM80aR2gb4pPrvf9FnYGCLh+HNrtmZwn+RGe0buJr6D5KRb/ZX4Ch9jteZIfgTPA/gfBgl438Nk1MA20BXxRRV7mUJEvhJ2Z/fLHcYamSptAnAB+mtutuckdt1RNEoAD+Tuhy5jcff2IRn3yIj8i8lliifEBgtNv5El+RLcLdvD4/QtBr/mGzDzTYtai2cGIQMFMUNSpEO1PzHxSb0gbA6UFoNVXBxfCKtXr176R6W3XRE0RAJYziVXDohfOApsSToHRwRm5iG+wfxo4hm8VLHRYFMC1C5dru8Ho9Nxc5O96wRb2CTz6cziXHksF0CHQGowiF+YSQZEmwyWtgHZ/Tk+qZfRzS7onwLxx+YILgN0MQ1Cn8y2XKE0RAFZw/qCmfJ9/P3+E48mhMOSUIxWCIcEvxxfA1ltn4fWHkrexBn2BHUkXoX+gM5icnUcx8spSuJger7Z1jb8+vYeBoe7Q4ZIVhXGMvYw5VKTp0Hd9QO/A1JuEwz9QLuvqaisrAHQaahvfcLqoCQIwT/KCQ2+iyGhdBPthCeEf/fOciqKkpyzgbPD8w1t48v6l2mcx9JHW3D8FHS9ZQ8dABnxzqMh2hBEBDEz0hja7JuGGmDqUywynyxRsOyQWE9KtU5kKINZ+jybsCBv+YLVYya0E4NqbFOgZ4igRQMcgGzCKZkRQlAIYcHMp6G4adxI5zHL5uwKnQnAV4chnLcOrC3w0YVM8Or9ZIsE0HhgSnRyzmiW/FGQgBXPiwxXVpvh+sZ7Qau0fW5HDLJeVEsC3On0NcS9lzb6BTvOLuywK1q6METD0KUK9OP04CsZf9ZEi3JdgBVgmrAf/F4FFUhZlbPQKMFo5AQvk1mzS06Aa+56LggtAd4QuThs1BhxZOBoLY/m8OFtshbGwXB//Bc8iNHwT/d/PYH70JpgVsQ5mRfpLYBW9AQJSzsKeV1fVXhhrYrhfjrH7qFnI4eaD6AygnADq/qKHUaDqbbxHdB35YO3fxVka0evZcfpWRJFcJeRFHP/9A3PjN0L3yw7QPUSKX644ExGsB6d7+2DkA/WWRux7zuGfxtPMBiOH65jrVlZWAGW0jBvgwkG1+iM6NB983/cBLY6b4lMs7wfY/zpcJFYJAq6rLL93hDrAfBgH24JF5GqYGe0PPWPdvpg7pFJxXMLRSakbwfyYzRNCfNwPXE3LoD6XBlHg2kBltHToYhj6AfUGJCwNRgEMeOBbLNWh8SXRIrFKFi5kxOcSQGdOAFH+0O2KAxjHOQgqAq48+vi7/mCya0YM4e6PlMONC74IJhUAWxeIfNbtF+OxubjKo+NrSjNL8K6sr7a26H9/Q6egeRLydwqeB50vL6ACmBXNCKDTZfI7AUXACWDM9ZVgtHHyYeQuy2FtVQRQtoZBE/zy9z3PL7RlZoAVOUX9jjCbJ3tFQpVQDItcIiG/RABRPAGEzIdOV+bTEKkQImDfEZYzMsIbDJaNWorcZTlcVlkB8NcCahttnDRo8qMtnwY+8BX8JdlfEoD8u3tFlBzYJmyTkJ8TwLSoNbICoCKwhc7xjoUWAXITX5I3PNDzs+68PuORuzUNdaoqswYgIwDWe6750zgzvYnJ61Pw5Cb33YtMALjp/exf10UylVBsSb0oFQCaOyGsAGICoFuoo4wAqAgKYQ6h+YMC6H9/OQw6uuhx/f6tOyN3lV0EkwmFajWgkaDqmFA09taac/Q9wUkeRfae4H4pPuICWAnG+Yw4MA2xo+SXCCBaTgAs+RGGYQtUFgH3ouw+N7yg9865mAPUiHK3Po0AfauKANBmKse+aKzebyFeSxkBeAruB+QlAHxr4f2PYqHbkoroN/eh11VnOQGslQqAT/5QFiiCa8qbQ5STyZ45vSKcodvqqRuRsyx3yykbApWJBFVr82MN9KZ7b5szasAD30wyAwjuB+QlgNFpAfR1PSKZSuiK8PsMGBK5mBEAGe07X7GjApgdux66hznlJj8rAIRxvHIzAeUk4ab5RbusDnbDZyJnWQEoHQGSiQSxTkSdn0d0btf/ztIUojLB/YC8BDAhbQO8/Pg3vP/0sdDAHHjc04spzvzf489CAc//gb2GOsB/BrWdP/MTfMgU4BqZHyH9w2sYGbNcYusrEoAi8lNcVW4mQAGYJLqC2eHZj3/spmuCnFU1AiSbFo02VJUqtci/G/4S5XakKAXQ9543rXBgE7JOgnkh/lJc4SMgb4SuB++IveAf/Se4XN1Gf0bMD+PhKh8bYH54HojYmAu2BC7R2yEg/jisijsMtpGbGETxEJ0XNksRI4fYLTJYc/MobEw4Ba7XdsOCuC0M4nm4tlUh7Ci2SXGdhxvbJfBM2A/b7p6HVbePwcKb2xUjYceXcQuxE+xubYceV51kBGAZs04igDzJLxGBHXS+7vRFEXAOsFGMPXTaMPkStf+Rs4z9/52WSm+K5xxhLa3yVQzq1yaf9c0Oz7XFaYaaQQL6AfmFQU1uOkO7P6cpLFqV3x5eDm33TaEYcsQeJh9fDOaH5kLb/eR3B6ZKcVCKdocspDg8TTH+tJRB+yOW0PW4NUw55w2jznpA+6PTGRzj4fgMCaQ1e2bkW71BgtMMxgYuBctgP+h+fgFu+AaDszycm5MnOpyfK8UFHnD7IodLVtA7yAnmhvvD6NBlvHx+PmwUgh/q5Ox9zuyRCXWGLpQK4KpT/uRnBWAYbvfFEClr/9N7aeM2HOP/9Su3/18d+qZ4FRxgeUdYu3q7xhgJ+l+L+X3MTW67vRB6FvhSKgQ2QLsjliqTHzEUBXCCFUBhyC8nACS/QgEITH7EuCCeAAQmv0QAEQFSARSG/PkJII4ngPzIzyEi/5kAuWh61w3b/U3DMSaDkKus76qtqgMs4wdo1aE7alBRjY0iF11AAQgZDi3IhpjO15wYEahAfhzxJQI4bCU4+akATtiwAvBUC/lxxJcKwE5w8iP6BPMEINTIzwt1mqAAYnkCKAj5w1nkIQIu/Gkc6wCtN40LJxxtSrnKcFZl+1/WD9DSqlBZh04pDdsdsLCnFxUwHFrQTfEmN5ylIlCC/FIBLJEKQACzRwIy4lMBnPeG0XwBCEh+iQAur4TuF+wEJz+O+FIBeAtm9vBhEsYJYAN0D3cuOPkJjCIW0koTjGOcO/yJlSh03Ab5IEdZrlYojP0v7wdw6wH1G1iam5skOD8X0gxSpi4QmkPtj1oqRX4qgKMOMPkkKwABR37O3s8lAIHJzwhgmVQAApNfRgBh3oKZPfxQJyeAOfF5CCA/8nNAEdxwloiAmj933LCPXtcdqj8AOVqlxQ+12Pj/t4UVgDQztGZNDIfiG/d+6hgy/wR38eIojYgzAZKuoOTHEV+RAIQiv1QAyxkBqIH8OOJLBbBQcPJTAVx2BqtITgDCmD38UCcVQJy/YgEUkPwcOt9wAtO7bPQnahHoBowOZs2f77VqqJYB+iUzqGKln76viznWrTeOno1OB84CQiyKqVIeHe1BHGkLQn4ZAfxpLTj58T5QAFNRAOe81EJ+TgDTQ1ZB94sLBSc/jvhSASwXnPxUAFcXsQLYCD34AlCS/Eh4rDRhfNOJcg+fvemC3k7IzUqN6/yPLenznRCjv0w4tGqDqtQMqt6hUXvidNzFcKgQs4CqL8jgzKEvkZ8TwJRTjACEJj8jgHkw9YJUAEKTnwog2DtPARSW/FIBrIcxV5cLZvbwQ50SAVzjCUAV8hMYImLts1EIbXdOSq3aqoEhNX9+oGtW5YUyf2TNIC2tKhUb1q6PZlD7ozPWsLNAsQmAWydAAuZHfhzxhx5zpALoxheAig6vojh/15MoAB8qAHWQH0melwCEID+ib4gLWEXlFoAqDq+iRS4UwPT4AEYAEc4qk58KgBDfiAgAB5tmHoN2ISdZblYR0vzJZQZVbloX/YCGDWaY9zG+4fiXEGZQYd8SiZGB9oRseZFfKoCl0O2ItaAjP+fwcgIYc95LLeTPSwBCkR+JrkgAhTV7+Ha+rABcVCY/jvo4+mNotPX2if/8b1j7X5GTrIkuqPmTKxqkVb16da2KFVFpOj0v2h/FN3IPTvPLxGq8WNFBFYxNWw9LM06B+7Nj8GvqapXOMfDWMuh2aj50PTxXFn8yGHvSE+ac9YNBx+2hKxFB16MKcAxhw+C4DZhzOIGYJ8XJ+VKcYjDojBNYBa6BaZd8odtpWynO2EL3MwukOIuwY3COh/N20OP8QgYXeLiIWEQx88pqsA3bAEOD3KHHpUXQk8KeQSAPQQ4K0SvYUYrLPIQ4UYwMWwaOsdtheuRaWsGBj96hLlKE8XDVVYpwV+gT7sYggodIhDsMiPKEBTe2gcPNXfBrzDLoE+UOfaI9KPpSeDKIkUOslwT94hCe0D/eKxPbR99n9EXkIuUkclPA6I/iRTEtrcp1GEejcb9llmPtU/ZluT0/Bq7PjmS7PjsKqmBZxmk48CYS9ry+Ch7Pjqt0Dtf0o+CYegAsL/pSZxeBJg+DpWB/PgAWX9oGVmdXwtQzy1h4w9SzPJzzBguK5bI47wPTOFzggVyLg3XgWvAO2Q2el7eBZeAKKYL8YLoEK6UIZjADcXmVFCGrKWZSrCGkl2JZxF7wizoEC8I2wqzQtVKEraOYjbjKYA4i3F+KiAAJMNQ5N5LDepgbxcApZgcE3DwB3vEHaA0fqxgG1jEbwTqWwyawjmNgQ7FZingG8xDXtkhxfSvFguvbYd2dU7D+7hlwvLkb5t/cJoFtwnYpbkmxIHGHFLd3Utjd2ZltR36ecMQju/OMwTOQixUb1a6H3BRi8euLi2JaVakz3ICg2cjQxZenpG2GKY+2ZU19tBVUgdWTPeD/MhBWvbgA0x9vB1XPg5hwZx0MO+8Kg47ZUwxGHHeAGWd8YNGFABh3ygsGn3BkcJLBEMQpp1wYehrhzOAMwkWKsy4wjMM5Vxh3YQk4Bm8C2yB/GE6uT3HBTYqL7lJcYvArItBDiiApRgR58uBFsTBsE7hF7IBJIb70JXgUlxdLEbIEfudwRYqRoUtlEcZhGYy8ysGbjvxL4/fDwpit8Ee4N4MIbxgVsVyKSA4+MCqKgy+MjuYhhsMKGB0rxfi4leB5az8sTTwMFtf8YUy8H8XY+JVSXOPh+ioJxt1ArKaf42+uyfotZDF0X20RTTjYgnKRSdisoA7zJ1duEDoaFRrUwrLTTX72GW6JMdnC+AKF9QFy+QQ3nKmtzY/2DDvuREf9bkdtBLH55UOdaAZZXCI+wIXFgtn88hhPfIAZxAxC80cIm18efa+4gDUZ+ceE+whi88vH+U3C7WH6NTLr3NgEPSJdlLL5OTCRH3tou28qNLDoaoscrPBDzQZyzq9aBCDjDBPFYYZoQ1Rgx0tW4bgahzkZmiAALjokEQEh+bATCgSgQrQnr0Uu89MoAF9GAGogPxXA5eVSAQhMfokAYlgBFCLak9cKr4wAolyUJz/G/mPsszpcsIKWPiOuEe61ohyszJZAV+Pon9sZ1tKqVqF+TRRAU50lw2YYxznkqJomrQ4BcAl0SDypALyJAOYJOvJz0R6JAC4uVgv5ccSXCCBwkeDkxxG/7xVXRgARPirF+b+U22MSYQ8zrq+nAugZ5aoU+Sli7HPo6L9nck6DaV3skHsV6tf4kVZ/U6Pzm5czXEmrcuU6bPWtlvpnZwfRHTlkFjBVcj+nugQgmQkIAYedcKaOrkQAApJfIoBAngAEJr9EAKFrpAIQkPxSAWyEsZwABDB7+KFOTgBWNzZLBVBQ8hPi4+hvcHYOtFg2PIId/X9kR/9K6nR+81wZxl33rP2l09Su9zhyo58k+zM1RACcT/DbJU9GAMfmCU5+KoAzPAGogfyICSE+UgEITH4qgFBXsIllBSAw+RUKoIDkNybkN4p1yDaKXAR62yd8+mGCkSVyrkLNCg3ZqiXli2r0zxUSpbNA+fKN0Rdo/+f0w53JiEsz9JSYBdQtAMTkO+thRtAq6M4TgFDkxxGfE8DYS0vUQn4c8aUCsBec/Dji95MIwFdw8iNMI1kB3CQCiHYtMPk5AeifnAXNPQefo5Gf8lqN2dGfH/osMgFwzjB/Fmha7w/jPoZX5j/HFAllcoSKQgDTH20Dp7SD0Ov8IlniC0B+RgC2MC1ohVQAApOfE8DMMCKAIHvByS8VwCYYG+lbaIdX0QqvaaRDbgF8aeRnyd+JXFN3/ZhXtXq2GEZtf9nR/7uiJL98SJS+S6x83WpNyGdz3U1j/Yyw1qMSG2aKSgC4YDY00YeST0jyI7qd5QlADeSnArjCE4DA5KcCCHOli1uKBFBY8ksEcIMngIKM/MTxNY61z2l70AJ+WtAb6/00L/d9tab03V8M97SLevRX5AtU06pVAdcFmpatXqkt6ez4zgnOhHjumQUxhYpSAFhsC/cTICGFIj99+TQngMClaiE/jviKBCAU+ZHw/cLcWAGsEJz8VABRDjDzxgZGADFuXyY/fsY6ZOKzt/AdkVi2YlkDmvNfs0IDNvJT5La/olmAe6dwLW4WaLywzwQyZX1GU6ggDnFRC4BGh265MDPBMWE2sMsLQGjycwKYdXWtRABCkl8qgM0wLmqF4ORHc4cTgHXCFqkA8iG/UZwDTXhrs23C5/rjDbHYVXOWY7XkIj/FIoBc6wK4G1+rWjmcnlq22TFhO9ZpKYhDXBwCYKJDTtCBEE+IPbzdzi0gAvCjAlAH+RETQ30lAhCM/HwBXHWDeTwBCEl+iQBu8gSQB/kZp9c+BwWAIWsd54EHkVNaVcvpUI4Vcdy/oBEhXImrqVWjAq4L/Fy2djV9g5Mzb7FpEvmuDRSXALh1AiqCQm5j5ASAG9fVQX4c8TkBYGan4HV7qADcJQIQmvxUANGORAAbGQHEuuVN/hg0fXDFdy608Btxv2ytCp2QU1rVyzeiHGO4VmRx/4LOAtpsPsb35epURaW2aGzVfULHy/M+YppEflGh4hQAFUECMYfOzS3UTi4UAJYskQhADXV7qADC10HPYAfBi1YhJAKIXiE4+dHckQjg1lYZAciTn5o+5FytN4//73+jOk5HLhFO/czuSedyfjRi9M+dKcqEpuqVq12lGa7W6W4Ys4bGgNEUyiMqVNwCYDbaO1ESqrqZRUYAaiA/FUDYCqkABC5aRQUQ7k5TmSUCEJD8EgEkyAqAT37jGKnp03a/BTRZ2HcLcqhclXLIpXostyoUR9hTaYeYna7wxvXaHpp2BZWNxbQUmUKaIABuJmBEoPxOLqzWxghgmVrIjyO+YgEIV72hv0QAfoKTnwogRlYAucjPmj644NVsyVBMdW5LOVSdLrRqjONbEIcYS6jU5UyhWuYtexKiPKKVvRRUlNMUAUh8ggtWSqc0UwFcXikVgBrq9qAAZkcQAVx2EJz8OOJLBBDjJzj5cbSXCCBxK/SKdVdI/g6BNtBy9R9Paxg26kdNH8bxrctyqpymmT6KHGK+KVSfmELNcRprsrCfJenMDxh+lPcHNEkAXN0hJKQyWZ24pVEiADWQHzHpKl8AwhatogKIcIf517YoFkAhyc8XgE3iNqkAYnh2Pzm37uZxH38YbzqPmj4Md+rLmT5ltDT4yG0KaWk10K5VBXfttG7p+9sy4hQDOsX89QFNEwC3TkBFUMDENqzWRgUQ7K0W8uOILxWAo2DlCvnRnv4RHooFIAD5EWZEALNubWIEEOcuQ36M++vtmgw/2fyyGrmiXUW7BbvrUONNn/xMIRoVosly2vSB2rTaMHoPvhqT+AKSVAlNFIDEHLpkXaDcHhQAVmzISwBCVG+gAoj0h54hjoIXrUKicwIYH7tScPIzAnBiBHBbKgBjxunNaXvAApo69T+CHNHSpsluP/GiPhpv+uSXLMcskDG2XEt0bPR2TgjshGUy7rnRyJCmCkAqAqsvpjdgucK8BCBU6ZJJ4X4KBSBU6ZL+kUQA17dKBSAg+dHckRcAjfjEO2a3OzIdmnkNDSPcaKdgwau8JkZ9lDGFcNGiBt8fqNq4rpHevilxhqQB0SnWZAFQESS6UmLmt8KLtXpQAOPlBCBk3R5FAhCqaFUuAQhM/lwCiCczQJxDVnviYzX3Hp5Q5ccapmzIk7P7a8gteJUoASjKGOX7A7p1MTJ00PK+SbQDDHqwIssp/U+we7ofeiUvBXMiAqEx6/EOWnLl99S1Kn2/a4IbGAURMp2dy+AcByvodN4Kel20p6VLJl72oT8bIi5YS3GRh0s2sgi0ASOKeeQaijAfjILnw9SIVbRwVZ8rzmBMfjYOtgXjyww6I0I4LIDOVzjYQedQKUzCOCwEk6uyGBTlBQtubIdJcavBJHwRgwgO9jSfX4IoHkgfShDDhyO1+zmYx7rA3MQtYHt7B/S7vjir01kraOX7+4MaHRr1RU5o16rckmf3F2ump7r8AbqFsvL/auJ2ttZthpsN+eOU22N0ija/upy58VUQzH+6D6yf7BEcq19cgF1vwmjxLVXPMSeFkOOqHzVzEDja4zZFbq/uksg94BK+nf48gQgB8/cluOJLMRERymEFDW1ywHNLEM5DxEoKz7i94HvtEK3hMzlylQRTohCrGUTLYmrMGili10pgEcdD/DoK2+vbYM2dk7R0ybRr6wj8Ydp1DgFgyeEGDzfXS5GwAabzcWujDGYnbga/pBOwNu1M5vQrq6B/wJx0nV86YFW31pVrVm7Fbq+tU1Lt/oL4A1yJ9UaVG9ZojQ6PwdheIyzOLEsPSD4LW1+GZDqmH4ZFTw8KjvUvg2D/2whYlnFK5XMsJLBN3QOW4YRMl/1gaogUVqH+sDxyP3hG7AKLKyulCF0lwTREGIfVYHmVB3JODtMjeIhcK8Gy+AOw6voR+gK9GVHrGESvg5nR/gxieIgNkGBW7HqYFcdDPIcNMOsag9kEjjd30aJVyxIPw+wbGynm3NgkxU0+NsPcBB5ubZHAKnGrFLelmHd7O6x7cCbTO3ofjNxom9FmqMlo5EClujXaaDEvtv6e5Uj5khDyVNYU4tYHqrELG4216zIiaDLG9I+pp5amz0vYAgMe+Gb1SV4OQsPmyV5afnFc2vpCn6tXohd0DSb+y4X5LGyhf6AzFcG0kJXQ5aItg0sLpAi0kyJIiq4UCxkE83AZsUgGSHgk/6AwD+gaYg9dr9iDOR+hDlKEOUrQ7SoP4U65EYFwhhEx3uCYsAssrwVAt0hn6BblDN2jXKSI5iHGVYpYKXpQuDGI44HY/H2I2TODjPy/bZj//KchHcZi32sz5G/Mc3r58f5vtErJwXeKuUUyfOCftGtUpiLQH/3L76OOuj1Gu5M4nllCv42+ME5wXusE6IRyzi46wWgGofmjjqJViMnEDJoTHQC9rjgJXrQK0T/KE2xvboMJ8asK7fByi1xcfg86vGjzDyBmDzfys33/E8sFbrGrbGkjf36RoXpUBMwooNdyoPEQ/T0W93GdwOSuW7aQIhBaAPIi6H5pkVQAaiA/RnkUCkDA6g0DoqUCEIL8bHpDjmG8Y3b7EzPR4U3R6UFtfj3t72voseSvVxoiPoUKjxI0qdSANoheLaMmPdtsnRDXMdgGTO645QjxBhp1CYBJoHOmBO3BCmBCyHK1kF8igJj10CvUSfCiVTjiKxRAIchPV3jjHHKwAkfzJcNu1NRr3Af7uNL31THJrYlcuFO7tJNfUXi0ErvBgREBOxNU+L6mse6G0UEGxJTAUVbVkotFIQBaBynRlcbmsWQJRnzUQX4qgMhVMJcTgEDlCvlxfhTAgoTtUgEUbuTPwr/FGp4/uw0KrfB9FRNK/hqV9Hjkr8ly4Kshv6JNNHwRSHyCsmXL6rfw/XWv/unZzPthCykCdQoAMeC2NzFP1jMCUAP5cbSfIhGAs1rq9gyI9mIFsLpQNj+SH1f62+yYCE0c+h3GvmRs/kptWLNHnvzffk3kz08E9eRE0I6MHt76R2Z8wMan+wlU9AvULYDBKX5gn7qfklQd5JcIIHYD9ApzFpz8OOJzAph4bbXS5DfinF1Mab5oDbobx35sPLenH/YhJX9l7dY8m/+rJ39eIuAc48ZalbVbaWlrUxE0mm4+U2/35IfoF5jedc9R5cV8RSEAXM2em7qDklUddXtwwUsiAIGLVlEBxBAB3OIJQBnyo71PBIDbSlus/O1xvdHGVpT82lptaF8yoU7O4RXJn49jzIVIG2mVK9cc6wyRhmxbs5NOb13/UaF8k0iZ2aCoBGD9eDfdWYajs6ClS6gAVrMCcFFL3Z6BfAEUpGhVtHTUx2vo7ZkCP3sMCa/RoVE/7DPSd+1oZiezyMWFOrloj0j+fETALZbRChPajOOkRxq1vY7bIP92h6b9izam6T337ILOBkUpAOoY33IFDOcKWb2BEcBG+OWqi1rq9kgEcH1NwchPRn1jAqzYrLth7L8/2fyykbX39dg++5ntw7psn34VoU6hFsuqsXkhWANSh3WgqAjqjzac1GbTuFvY8LTsSpJH5pdmg6IWABcdoiIQqHoD5vZY8QQgdOkSKoDEHVIB5FWrk5YrdMg0vLoA2u6fCs2WDbtd7zf9qdg3lPyVtLGvdNi+q8Nb4RXJr0TaRHk2KQprQNLXMRFbUpc1idqVrVChU7MlQ3e0P2j5AQunfqkKXXEIgFssk4qgcNsYp0avkQhAHXV7BsYuBjtOAIrq87OFagn5aUq47oYxH3UW9d1TtkJZI9onlcq2xT5iw5w/sH1XRS63RyS/EiIox6bF1pQ4x1pazTi/AEecBuOMppDpNx53bWHHoEmkyCwqLgFwMwEStbAb2KkA4ogAwl3UUrdHIoAba3KTH+vzY5Vmci/4UvLmS4ddrze0vSX2gcTeZ6qANOZFeiqzfSiSX0UR8CNE1VlbkppEZKRpLZkNypbt8LPzwNV6OydlYEUHWpgXnWTejFCcAshLBMru5MolAIFLl1AB3N4pEQDzNnYy4scQJ5d8v90RS2i1amRGozk91pE278Qb9VvzTJ66bF/xIz0i+QsZJuX8gqo8kwhjys35s0HtLjqDmi3/9UjbA1Pf4+Z73MmFIkAUtwA4c4gTgSrVGzCnnxGAq1rq9gyM42aA1czbGHHUJ7/HOj2tN417r+PY/3gt46ZDeKM+pjQ0Z/uCM3mq8ux9MdKjBr+gMhtL/h8bYdDR0kbfoGJ7djbQrz+q0+SWq0cGtzts+Zkm1hEhTH+8Lcs142h2cQqAzgS33YgIFqi0jZEKIH4T/BLhKjj5cbQfGOcFC+/szJ54cx1NY0A7v/XWCZ9/dhscUm+4vgW2LW1j0tZkbNdlR/0f2b6owfaNaO8XgUnEhUr5s0EzGnqrREVAhfDDFDOrVmv+iGz/5/RMfO+V48OD8GvqaolppOzL/IQQgMQcIoRVNqUZBWCdlwBUJL8hS34c8QfFL8nCMOjIS56gt31iZjOvoVE/jDGy4YiPbatdSVuPtfX5o341XkKbaPIUUaiUPxtwvkFTMhu0pGZRpUrt2KnaAIXQe930K5NPLvnYO9iRDZ165nDmkRBiUEYAEhFcXaBUSjNuZVQoACXJb8gRP8Y+mzF17HM6hdlCj5O2MHaP08duS8eHssQ3kJg7aOtr06oeTXm2Pn/UF0OcxTgboN1Zi40+NGLNolYYmeD8AxzFOo3rPaXj8jEn9HZOfKVPpndarYwNn1Lc98hRVQjKCkBiDqEICpjVSQVwbTP0jnBTmvyGHKIX5VDix+Ab1xdBhyBrwNcPtQoY9bqdy68n2/3WfSo74rN2PjV3WrHmTiO2jWuxbS6O+sUoAvlwKRcpqsNOzY3pSiT1D2SFUKt7s6E/uwzc0Hr9mLvtj87IRoeZXVCTRI84MRRUEKoIgCu5goRFX+VL6Q25BPAF8mPZGUr6qIU5hPhI+CzM28F1k/anZoHerklZzX1G3PtpXq9NxLkdKkt8msagy67mNmbbtA4vwiMf3hTJX8yzgbxZ9D3PP6BCqERMo4qMs0yFUKFGFZMfLbsuaLH817Otd0xINyCkQHLQMCojhmz52SEvQagqAM4cMoqw+2J6g0XcOqkAFJC/E34ypM8hJk42S3o60mPqiP6ZOaC3dwq08h+VruMy8Gz9cUZ2FapUMOGIT9sGIzva2hzxOTv/ewXmjjjqa2ikSJsNw1Xh+QcNJDOClhbjI1SrqM86y1QMtTs1GfCTVU/P5itGBHJiwJnBON6RmklEDMxKs4IZAlEYAXDmEIogvxVeiQAi3aATIT4FEj/CLqdT5MJsYupkIfGpc0tGfrx/XCBkSD86Xcd9UOCP07ourt6+4SDeaN+OtgXa+EzlPm7Eb8AjfhW2TbXFCE/JMYvkhcDNCI1Ye7Y5RjRo+FTqMCMp9Osa6QxqZvWLazvv30932jw5yeTonH+7XlwAPSKcoXeCF/RLXg79U32h/wOfbPKZhZ9j0vyzF2ecyHZ4eigH/z9PpPjkiT53l9HXh3YPd+LBGbpHMJhzbVOOfcKO7OGxS7J7RrsQuGb1jCGfMa7QI9oFuoU6QJfzZAY7Mgc67bD4V3/lmKTWLkNON7Xo5l6rQ+PBrFPLEB+fmTw7G9VpzrPxfygA8UXyl2Ah1GEdOYxfN6EhPXSYKzEOn7wYqjeobd5qtLmlseNva7utmnKp9w6rpIFHFv0z7KIb/Ba2BEZf84Pxd9bB7LTt4PviLHg9PwFTHm/JIcimeLRZFg835YtJDzZmj7nulz0q1odB3AoOOYsSdoBr4l6YHLcGfg9fBr8GecCQ004w4LAd9Nlh9U+3NVOTTL3GXTKwHrxOZ7jR9Oo/1O7GPYeE9BXxGctyZk4ztg1+ZNukjkj80i+Eymzcuha7gMOZR3RWoE4ziqF2Rf2Kdaq355tJOIJW/l9184bDOk5oOae3ezvP3/Z2XDM+xHDz1Hs9Dlm9+uOUx4ffg7xo+XJMV+gT5wn9biyG/onLYMAdbxh43wcGJvvCoJQVDB74SYE/J6+AgUlkNkhYSrc99gi0h24XFkLX0/PB7KgVDDliD0P32X3ossXyVYdV4+61W/J7iO7CQXt/ntLDvX6/thPx3jAthG/eVKxOnoEzcbTpxhRutOfMnP+xbVGNbRuR+KVcCJyzzIVP+bNCQxkxoE3MmkkVa1fj+wzteSNrh/J1apih2dRytPnMNtYDPJrY9/dv7jnscEvfEZd0/UdF6W4Ye6v15nFJejsnPmy7b+qTdvunZrQ7aPGy3WHLV+3/nP6K/vuARUbb/VOf6O2a/LD11vFJrQNGJzTzHhb1s+ugizqL+h9qNKe7v65FT0+d4cYz0ZwpX6dyFx7Z9Xn31a4iEh7Dl4x501KO9A3lRnsunMk5tyLxvwIhfJvHrFCTtX/r8WaGpqxj2IKMoK0ZQTD2M50hKkqiSnxRcDBgSdqpfI0qZlV16vWuof/jwJqdmwyvaaozoqZ5y98p8N/kd/h/+Df4t2yyWQee3a6fi+wV2chNRTRvcKWWEF5bqzW9V+aem/JG+nrss9XMY7T/ViT+1xc14s8K5RSIoQ5rIvzA2sl8QTAzBNrSuHcZUzCIMMhM0aFivdodqDhwJJYViHLA75JzIMkr1iPnJeemdnwldq8tE6fnRng+4X9k7/l/7DPIk76c3GgvRnXEWUEyK/DFUIk1EaqzdjIniPqsKdGIjZU3ZU2MZiwZW7DEbEVnDSIQLbTBKzEZlAww5s4H83vu7+h3tGmacSv2XC3Yczdjr9WUvXYj9l7q8whfi73nquwzyJNeHO3Fo8Bi0Ob5DJwguBmiNmtW/I81MX5gyfgjS8zGLEmb8ETC4Wc58P+vKfudn9hzNGLP2ZC9Rj32mt+z98CN8BzhOZteWyS9eBRWDIoEwc0QFVmzogpLwOqsY1mLJWYdlqR1WcJyQuFQnwX/d9zf1WW/W4c9Vy323NXZa1Vhr12RN8IrIrxIevEQRAzyglAkivIsGSvwZozKPJFU5c0gisD9fxXe9yrxSF6BvYYisisivEh68SgyUcgLgxNHWZ5ItHliUQT+3/C/+10eRBfJLh4aJ4i8xFEmD7EoInWZfEguEl7A4/8Mhs4EKRslAQAAAABJRU5ErkJggg==" vertex="1" parent="1">
          <mxGeometry x="543.27" y="360" width="52" height="52" as="geometry" />
        </mxCell>
        <mxCell id="yJE9GD3ZsEBa4JYX66G7-29" value="" style="html=1;shadow=0;dashed=0;align=center;verticalAlign=middle;shape=mxgraph.arrows2.arrow;dy=0.68;dx=12.47;notch=0;strokeColor=#6c8ebf;rotation=-90;fillColor=#FFFFFF;opacity=50;" vertex="1" parent="1">
          <mxGeometry x="595.27" y="385" width="38.5" height="14.07" as="geometry" />
        </mxCell>
        <mxCell id="yJE9GD3ZsEBa4JYX66G7-30" value="Enter" style="text;html=1;strokeColor=none;fillColor=none;align=center;verticalAlign=middle;whiteSpace=wrap;rounded=0;" vertex="1" parent="1">
          <mxGeometry x="300.32" y="217" width="40" height="20" as="geometry" />
        </mxCell>
        <mxCell id="yJE9GD3ZsEBa4JYX66G7-31" value="Exit" style="text;html=1;strokeColor=none;fillColor=none;align=center;verticalAlign=middle;whiteSpace=wrap;rounded=0;" vertex="1" parent="1">
          <mxGeometry x="549.27" y="217" width="40" height="20" as="geometry" />
        </mxCell>
        <mxCell id="yJE9GD3ZsEBa4JYX66G7-32" value="Window Background" style="text;html=1;strokeColor=none;fillColor=none;align=center;verticalAlign=middle;whiteSpace=wrap;rounded=0;" vertex="1" parent="1">
          <mxGeometry x="260.32" y="490" width="120" height="20" as="geometry" />
        </mxCell>
        <mxCell id="yJE9GD3ZsEBa4JYX66G7-33" value="FrameLayout" style="text;html=1;strokeColor=none;fillColor=none;align=center;verticalAlign=middle;whiteSpace=wrap;rounded=0;" vertex="1" parent="1">
          <mxGeometry x="549.27" y="490" width="40" height="20" as="geometry" />
        </mxCell>
      </root>
    </mxGraphModel>
  </diagram>
</mxfile>
